M48
;DRILL file {KiCad 4.0.2+dfsg1-stable} date Fri Nov  3 12:39:09 2017
;FORMAT={-:-/ absolute / metric / decimal}
FMAT,2
METRIC,TZ
T1C0.400
T2C0.500
T3C0.550
T4C1.016
%
G90
G05
M71
T1
X136.6Y-116.4
X137.45Y-113.5
X138.584Y-111.875
X139.089Y-130.01
X139.58Y-114.77
X140.676Y-117.525
X142.375Y-112.5
X142.39Y-126.49
X142.4Y-133.1
X142.996Y-105.932
X143.015Y-117.908
X143.208Y-114.372
X143.773Y-113.747
X144.1Y-113.
X145.3Y-105.925
X146.243Y-131.425
X146.642Y-116.742
X146.871Y-123.593
X146.9Y-104.145
X148.6Y-128.2
X148.7Y-109.7
X148.733Y-110.751
X148.736Y-115.405
X149.Y-118.3
X149.4Y-106.7
X150.4Y-115.55
X150.4Y-126.5
X150.409Y-118.613
X151.2Y-126.5
X151.208Y-118.65
X151.696Y-109.057
X151.7Y-106.6
X151.858Y-117.889
X152.557Y-123.618
X152.7Y-115.6
X153.239Y-108.435
X153.249Y-107.125
X153.9Y-129.
X153.974Y-118.275
X154.159Y-106.976
X155.1Y-113.25
X155.329Y-126.871
X157.3Y-137.
X158.3Y-130.8
X159.205Y-110.625
T4
X134.Y-85.74
X134.Y-88.28
X134.Y-90.82
X134.Y-93.36
X134.Y-95.9
X134.Y-98.44
X134.Y-100.98
X134.Y-103.52
X134.Y-106.06
X134.Y-108.6
X134.Y-111.14
X134.Y-113.68
X134.Y-116.22
X134.Y-118.76
X134.Y-121.3
X134.Y-123.84
X134.Y-126.38
X134.Y-128.92
X134.Y-131.46
X134.Y-134.
X168.Y-85.68
X168.Y-88.22
X168.Y-90.76
X168.Y-93.3
X168.Y-95.84
X168.Y-98.38
X168.Y-100.92
X168.Y-103.46
X168.Y-106.
X168.Y-108.54
X168.Y-111.08
X168.Y-113.62
X168.Y-116.16
X168.Y-118.7
X168.Y-121.24
X168.Y-123.78
X168.Y-126.32
X168.Y-128.86
X168.Y-131.4
X168.Y-133.94
T2
X147.499Y-137.962G85X147.499Y-137.312
G05
X154.499Y-137.962G85X154.499Y-137.312
G05
T3
X148.349Y-134.937G85X148.649Y-134.937
G05
X153.349Y-134.937G85X153.649Y-134.937
G05
T0
M30
