G04 #@! TF.FileFunction,Copper,L2,Bot,Signal*
%FSLAX46Y46*%
G04 Gerber Fmt 4.6, Leading zero omitted, Abs format (unit mm)*
G04 Created by KiCad (PCBNEW 4.0.2+dfsg1-stable) date Fri Nov  3 12:39:00 2017*
%MOMM*%
G01*
G04 APERTURE LIST*
%ADD10C,0.100000*%
%ADD11R,1.950720X1.501140*%
%ADD12R,1.500000X1.250000*%
%ADD13R,1.250000X1.500000*%
%ADD14R,1.500000X1.300000*%
%ADD15R,1.300000X1.500000*%
%ADD16R,1.060000X0.650000*%
%ADD17R,3.657600X2.032000*%
%ADD18R,1.016000X2.032000*%
%ADD19O,1.250000X0.950000*%
%ADD20O,1.000000X1.550000*%
%ADD21R,2.032000X1.727200*%
%ADD22O,2.032000X1.727200*%
%ADD23C,0.600000*%
%ADD24C,0.250000*%
%ADD25C,0.254000*%
G04 APERTURE END LIST*
D10*
D11*
X152025860Y-102200000D03*
X154774140Y-102200000D03*
D12*
X140800000Y-116400000D03*
X138300000Y-116400000D03*
D13*
X147200000Y-114550000D03*
X147200000Y-112050000D03*
X145100000Y-107350000D03*
X145100000Y-109850000D03*
X147200000Y-107350000D03*
X147200000Y-109850000D03*
D12*
X146950000Y-102200000D03*
X149450000Y-102200000D03*
X150000000Y-128400000D03*
X152500000Y-128400000D03*
X152850000Y-116700000D03*
X150350000Y-116700000D03*
X151650000Y-105400000D03*
X154150000Y-105400000D03*
D13*
X156600000Y-113250000D03*
X156600000Y-110750000D03*
X143000000Y-107350000D03*
X143000000Y-109850000D03*
D12*
X149350000Y-105200000D03*
X146850000Y-105200000D03*
D14*
X144600000Y-128000000D03*
X147300000Y-128000000D03*
X158050000Y-128000000D03*
X155350000Y-128000000D03*
D15*
X138800000Y-107300000D03*
X138800000Y-110000000D03*
X136700000Y-107300000D03*
X136700000Y-110000000D03*
X140900000Y-107300000D03*
X140900000Y-110000000D03*
D14*
X150150000Y-114400000D03*
X152850000Y-114400000D03*
X147950000Y-116700000D03*
X145250000Y-116700000D03*
X158700000Y-137000000D03*
X161400000Y-137000000D03*
D16*
X138500000Y-114450000D03*
X138500000Y-113500000D03*
X138500000Y-112550000D03*
X140700000Y-112550000D03*
X140700000Y-114450000D03*
X140700000Y-113500000D03*
D17*
X141400000Y-138100000D03*
D18*
X141400000Y-131496000D03*
X143686000Y-131496000D03*
X139114000Y-131496000D03*
D19*
X148499100Y-134937460D03*
X153499100Y-134937460D03*
D20*
X147499100Y-137637460D03*
X154499100Y-137637460D03*
D21*
X168000000Y-85680000D03*
D22*
X168000000Y-88220000D03*
X168000000Y-90760000D03*
X168000000Y-93300000D03*
X168000000Y-95840000D03*
X168000000Y-98380000D03*
X168000000Y-100920000D03*
X168000000Y-103460000D03*
X168000000Y-106000000D03*
X168000000Y-108540000D03*
X168000000Y-111080000D03*
X168000000Y-113620000D03*
X168000000Y-116160000D03*
X168000000Y-118700000D03*
X168000000Y-121240000D03*
X168000000Y-123780000D03*
X168000000Y-126320000D03*
X168000000Y-128860000D03*
X168000000Y-131400000D03*
X168000000Y-133940000D03*
D21*
X134000000Y-134000000D03*
D22*
X134000000Y-131460000D03*
X134000000Y-128920000D03*
X134000000Y-126380000D03*
X134000000Y-123840000D03*
X134000000Y-121300000D03*
X134000000Y-118760000D03*
X134000000Y-116220000D03*
X134000000Y-113680000D03*
X134000000Y-111140000D03*
X134000000Y-108600000D03*
X134000000Y-106060000D03*
X134000000Y-103520000D03*
X134000000Y-100980000D03*
X134000000Y-98440000D03*
X134000000Y-95900000D03*
X134000000Y-93360000D03*
X134000000Y-90820000D03*
X134000000Y-88280000D03*
X134000000Y-85740000D03*
D23*
X148733358Y-110751454D03*
X155100000Y-113250000D03*
X149400000Y-106700000D03*
X142995885Y-105932287D03*
X158300000Y-130800000D03*
X142400000Y-133100000D03*
X137449834Y-113500000D03*
X142389778Y-126489778D03*
X136600000Y-116400000D03*
X139088558Y-130009921D03*
X150400000Y-115550002D03*
X146641949Y-116741949D03*
X159204539Y-110624999D03*
X154158661Y-106976024D03*
X148700000Y-109700000D03*
X153900000Y-129000000D03*
X146900000Y-104145010D03*
X152557164Y-123617675D03*
X146871390Y-123593222D03*
X151696309Y-109056706D03*
X152700000Y-115600000D03*
X145300000Y-105925010D03*
X143014779Y-117907819D03*
X151700000Y-106600000D03*
X148600000Y-128200000D03*
X148736095Y-115404893D03*
X151858278Y-117889299D03*
X155329448Y-126870552D03*
X146243024Y-131425020D03*
X157300000Y-137000000D03*
X153974227Y-118275027D03*
X153239398Y-108434611D03*
X153249247Y-107124623D03*
X139580397Y-114769935D03*
X138584451Y-111875010D03*
X142374990Y-112500000D03*
X144100000Y-113000000D03*
X151207759Y-118649600D03*
X151200000Y-126500000D03*
X150408604Y-118612568D03*
X150400000Y-126500000D03*
X140675695Y-117525012D03*
X143207810Y-114371821D03*
X143773497Y-113746811D03*
X149000000Y-118300000D03*
D24*
X148733358Y-111175718D02*
X148733358Y-110751454D01*
X148700000Y-113250000D02*
X148733358Y-113216642D01*
X148733358Y-113216642D02*
X148733358Y-111175718D01*
X156600000Y-113250000D02*
X155100000Y-113250000D01*
X155100000Y-113250000D02*
X150200000Y-113250000D01*
X142400000Y-133100000D02*
X141656626Y-133100000D01*
X141656626Y-133100000D02*
X141400000Y-132843374D01*
X141400000Y-132843374D02*
X141400000Y-131496000D01*
X157875736Y-130800000D02*
X158300000Y-130800000D01*
X144600000Y-128000000D02*
X144600000Y-129912784D01*
X144600000Y-129912784D02*
X145487216Y-130800000D01*
X145487216Y-130800000D02*
X157875736Y-130800000D01*
X148700000Y-113250000D02*
X146298911Y-113250000D01*
X146106261Y-113442650D02*
X146106261Y-115013056D01*
X146298911Y-113250000D02*
X146106261Y-113442650D01*
X146106261Y-115013056D02*
X145611156Y-115508161D01*
X145611156Y-115508161D02*
X141963161Y-115508161D01*
X141963161Y-115508161D02*
X140905000Y-114450000D01*
X140905000Y-114450000D02*
X140700000Y-114450000D01*
X150200000Y-113250000D02*
X148700000Y-113250000D01*
X150150000Y-114400000D02*
X150150000Y-113300000D01*
X150150000Y-113300000D02*
X150200000Y-113250000D01*
X141400000Y-131496000D02*
X141400000Y-128299504D01*
X141400000Y-128299504D02*
X141699504Y-128000000D01*
X141699504Y-128000000D02*
X143000000Y-128000000D01*
X140800000Y-116400000D02*
X140925000Y-116400000D01*
X140925000Y-116400000D02*
X141600000Y-117075000D01*
X141600000Y-117075000D02*
X141600000Y-128000000D01*
X141600000Y-128000000D02*
X143000000Y-128000000D01*
X149400000Y-106700000D02*
X149400000Y-105250000D01*
X149400000Y-105250000D02*
X149350000Y-105200000D01*
X143000000Y-105936402D02*
X142995885Y-105932287D01*
X143000000Y-107350000D02*
X143000000Y-105936402D01*
X158300000Y-130800000D02*
X158300000Y-128250000D01*
X158300000Y-128250000D02*
X158050000Y-128000000D01*
X143000000Y-128000000D02*
X144600000Y-128000000D01*
X140900000Y-107300000D02*
X142950000Y-107300000D01*
X142950000Y-107300000D02*
X143000000Y-107350000D01*
X138800000Y-107300000D02*
X140900000Y-107300000D01*
X136700000Y-107300000D02*
X138800000Y-107300000D01*
X140700000Y-114450000D02*
X140700000Y-116300000D01*
X140700000Y-116300000D02*
X140800000Y-116400000D01*
X149500000Y-100800000D02*
X148600000Y-100800000D01*
X149975000Y-100800000D02*
X149500000Y-100800000D01*
X149500000Y-100800000D02*
X149450000Y-100850000D01*
X149450000Y-100850000D02*
X149450000Y-102200000D01*
X148925000Y-100800000D02*
X148600000Y-100800000D01*
X148600000Y-100800000D02*
X146000000Y-100800000D01*
X145600000Y-105200000D02*
X135826249Y-105200000D01*
X135826249Y-105200000D02*
X135600000Y-105426249D01*
X135600000Y-105426249D02*
X135600000Y-108300000D01*
X135600000Y-108300000D02*
X135800000Y-108500000D01*
X135800000Y-108500000D02*
X137185002Y-108500000D01*
X137185002Y-108500000D02*
X137761165Y-109076163D01*
X137761165Y-109076163D02*
X137761165Y-111338835D01*
X137761165Y-111338835D02*
X137451526Y-111648474D01*
X137451526Y-111648474D02*
X137451526Y-113500000D01*
X137451526Y-113500000D02*
X137449834Y-113500000D01*
X137449834Y-113500000D02*
X138500000Y-113500000D01*
X145250000Y-116700000D02*
X143297596Y-116700000D01*
X143297596Y-116700000D02*
X142389778Y-117607818D01*
X142389778Y-117607818D02*
X142389778Y-126489778D01*
X149750000Y-110750000D02*
X155725000Y-110750000D01*
X155725000Y-110750000D02*
X156600000Y-110750000D01*
X148700000Y-109700000D02*
X149750000Y-110750000D01*
X136600000Y-116400000D02*
X138300000Y-116400000D01*
X135458637Y-126380000D02*
X138788559Y-129709922D01*
X134000000Y-126380000D02*
X135458637Y-126380000D01*
X138788559Y-129709922D02*
X139088558Y-130009921D01*
X139114000Y-130035363D02*
X139088558Y-130009921D01*
X139114000Y-131496000D02*
X139114000Y-130035363D01*
X150400000Y-115550002D02*
X150400000Y-116650000D01*
X150400000Y-116650000D02*
X150350000Y-116700000D01*
X146641949Y-116741949D02*
X145291949Y-116741949D01*
X145291949Y-116741949D02*
X145250000Y-116700000D01*
X159204539Y-110624999D02*
X159479258Y-110899718D01*
X159479258Y-110899718D02*
X159479258Y-133220742D01*
X159479258Y-133220742D02*
X157762540Y-134937460D01*
X157762540Y-134937460D02*
X153499100Y-134937460D01*
X156600000Y-110750000D02*
X159079538Y-110750000D01*
X159079538Y-110750000D02*
X159204539Y-110624999D01*
X154458660Y-107276023D02*
X154158661Y-106976024D01*
X156600000Y-109417363D02*
X154458660Y-107276023D01*
X156600000Y-110750000D02*
X156600000Y-109417363D01*
X154150000Y-106967363D02*
X154158661Y-106976024D01*
X154150000Y-105400000D02*
X154150000Y-106967363D01*
X145600000Y-105200000D02*
X145850000Y-105200000D01*
X145600000Y-101200000D02*
X145600000Y-105200000D01*
X146000000Y-100800000D02*
X145600000Y-101200000D01*
X145850000Y-105200000D02*
X146850000Y-105200000D01*
X148700000Y-109700000D02*
X147350000Y-109700000D01*
X147350000Y-109700000D02*
X147200000Y-109850000D01*
X153900000Y-129000000D02*
X153672309Y-128772309D01*
X153672309Y-128772309D02*
X152872309Y-128772309D01*
X152872309Y-128772309D02*
X152500000Y-128400000D01*
X149450000Y-102200000D02*
X149325000Y-102200000D01*
X154374710Y-100800000D02*
X154774140Y-101199430D01*
X149975000Y-100800000D02*
X154374710Y-100800000D01*
X154774140Y-101199430D02*
X154774140Y-102200000D01*
X154774140Y-102200000D02*
X154774140Y-104775860D01*
X154774140Y-104775860D02*
X154150000Y-105400000D01*
X145100000Y-109850000D02*
X143000000Y-109850000D01*
X147200000Y-109850000D02*
X145100000Y-109850000D01*
X147200000Y-112050000D02*
X147200000Y-109850000D01*
X139600000Y-136200000D02*
X145311640Y-136200000D01*
X145311640Y-136200000D02*
X146749100Y-137637460D01*
X146749100Y-137637460D02*
X147499100Y-137637460D01*
X139100000Y-135700000D02*
X139600000Y-136200000D01*
X139100000Y-132776000D02*
X139100000Y-135700000D01*
X139114000Y-131496000D02*
X139114000Y-132762000D01*
X139114000Y-132762000D02*
X139100000Y-132776000D01*
X164900000Y-131400000D02*
X161400000Y-134900000D01*
X161400000Y-134900000D02*
X161400000Y-137000000D01*
X168000000Y-131400000D02*
X164900000Y-131400000D01*
X154499100Y-137637460D02*
X155249100Y-137637460D01*
X155249100Y-137637460D02*
X156111640Y-138500000D01*
X156111640Y-138500000D02*
X160800000Y-138500000D01*
X160800000Y-138500000D02*
X161400000Y-137900000D01*
X161400000Y-137900000D02*
X161400000Y-137000000D01*
X153499100Y-134937460D02*
X153499100Y-137387460D01*
X153499100Y-137387460D02*
X153749100Y-137637460D01*
X153749100Y-137637460D02*
X154499100Y-137637460D01*
X148499100Y-134937460D02*
X153499100Y-134937460D01*
X148499100Y-134937460D02*
X148499100Y-137387460D01*
X148499100Y-137387460D02*
X148249100Y-137637460D01*
X148249100Y-137637460D02*
X147499100Y-137637460D01*
X146900000Y-104145010D02*
X146900000Y-105150000D01*
X146900000Y-105150000D02*
X146850000Y-105200000D01*
X146950000Y-102200000D02*
X146950000Y-103289273D01*
X146950000Y-103289273D02*
X147460727Y-103800000D01*
X147460727Y-103800000D02*
X152025860Y-103800000D01*
X152850000Y-123324839D02*
X152557164Y-123617675D01*
X152850000Y-116700000D02*
X152850000Y-123324839D01*
X143014779Y-117907819D02*
X143014779Y-122982523D01*
X143014779Y-122982523D02*
X143624850Y-123592594D01*
X143624850Y-123592594D02*
X146870762Y-123592594D01*
X146870762Y-123592594D02*
X146871390Y-123593222D01*
X147200000Y-107350000D02*
X149799868Y-107350000D01*
X149799868Y-107350000D02*
X150549868Y-106600000D01*
X150549868Y-106600000D02*
X151700000Y-106600000D01*
X151700000Y-106600000D02*
X151700000Y-109053015D01*
X151700000Y-109053015D02*
X151696309Y-109056706D01*
X152700000Y-115600000D02*
X152700000Y-116550000D01*
X152700000Y-116550000D02*
X152850000Y-116700000D01*
X152025860Y-102200000D02*
X152025860Y-103800000D01*
X152025860Y-103800000D02*
X152025860Y-105024140D01*
X145100000Y-107350000D02*
X147200000Y-107350000D01*
X145300000Y-105925010D02*
X145300000Y-107150000D01*
X145300000Y-107150000D02*
X145100000Y-107350000D01*
X151700000Y-106600000D02*
X151700000Y-105450000D01*
X151700000Y-105450000D02*
X151650000Y-105400000D01*
X152025860Y-105024140D02*
X151650000Y-105400000D01*
X149274999Y-117663640D02*
X149274999Y-115943797D01*
X149783584Y-122701736D02*
X149783584Y-118172225D01*
X147300000Y-125185320D02*
X149783584Y-122701736D01*
X149274999Y-115943797D02*
X149036094Y-115704892D01*
X147300000Y-128000000D02*
X147300000Y-125185320D01*
X149036094Y-115704892D02*
X148736095Y-115404893D01*
X149783584Y-118172225D02*
X149274999Y-117663640D01*
X148600000Y-128200000D02*
X147500000Y-128200000D01*
X147500000Y-128200000D02*
X147300000Y-128000000D01*
X148736095Y-115211095D02*
X148736095Y-115404893D01*
X147200000Y-114550000D02*
X148075000Y-114550000D01*
X148075000Y-114550000D02*
X148736095Y-115211095D01*
X151858278Y-118313563D02*
X151858278Y-117889299D01*
X151858278Y-126920176D02*
X151858278Y-118313563D01*
X152200000Y-127261898D02*
X151858278Y-126920176D01*
X150453606Y-127261898D02*
X152200000Y-127261898D01*
X152200000Y-127261898D02*
X153607369Y-127261898D01*
X150000000Y-128400000D02*
X150000000Y-127715504D01*
X150000000Y-127715504D02*
X150453606Y-127261898D01*
X153607369Y-127261898D02*
X153674893Y-127329422D01*
X153674893Y-127329422D02*
X153674893Y-127330790D01*
X153674893Y-127330790D02*
X154344103Y-128000000D01*
X154344103Y-128000000D02*
X155350000Y-128000000D01*
X155329448Y-126870552D02*
X155329448Y-127979448D01*
X155329448Y-127979448D02*
X155350000Y-128000000D01*
X143686000Y-131496000D02*
X143756522Y-131425478D01*
X143756522Y-131425478D02*
X146242566Y-131425478D01*
X146242566Y-131425478D02*
X146243024Y-131425020D01*
X157300000Y-137000000D02*
X158700000Y-137000000D01*
X153974227Y-117850763D02*
X153974227Y-118275027D01*
X153974227Y-115424227D02*
X153974227Y-117850763D01*
X152950000Y-114400000D02*
X153974227Y-115424227D01*
X152850000Y-114400000D02*
X152950000Y-114400000D01*
X153249247Y-108424762D02*
X153239398Y-108434611D01*
X153249247Y-107124623D02*
X153249247Y-108424762D01*
X138800000Y-110000000D02*
X138800000Y-111000000D01*
X138800000Y-111000000D02*
X139359399Y-111559399D01*
X139359399Y-111559399D02*
X139359399Y-114370601D01*
X139359399Y-114370601D02*
X139280000Y-114450000D01*
X139280398Y-114469936D02*
X139580397Y-114769935D01*
X139280000Y-114469538D02*
X139280398Y-114469936D01*
X139280000Y-114450000D02*
X139280000Y-114469538D01*
X139280000Y-114450000D02*
X138500000Y-114450000D01*
X138500000Y-112550000D02*
X138500000Y-111959461D01*
X138500000Y-111959461D02*
X138584451Y-111875010D01*
X144100000Y-113000000D02*
X142874990Y-113000000D01*
X142874990Y-113000000D02*
X142374990Y-112500000D01*
X151200000Y-118657359D02*
X151207759Y-118649600D01*
X151200000Y-126500000D02*
X151200000Y-118657359D01*
X150400000Y-118621172D02*
X150408604Y-118612568D01*
X150400000Y-126500000D02*
X150400000Y-118621172D01*
X140251431Y-117525012D02*
X140675695Y-117525012D01*
X139965010Y-117525012D02*
X140251431Y-117525012D01*
X139572550Y-117132552D02*
X139965010Y-117525012D01*
X139572550Y-115530054D02*
X139572550Y-117132552D01*
X137891914Y-115406137D02*
X139448633Y-115406137D01*
X136700000Y-114214223D02*
X137891914Y-115406137D01*
X136700000Y-110000000D02*
X136700000Y-114214223D01*
X139448633Y-115406137D02*
X139572550Y-115530054D01*
X143207810Y-114371821D02*
X143207810Y-114307810D01*
X143207810Y-114307810D02*
X143096821Y-114196821D01*
X143096821Y-114196821D02*
X142176821Y-114196821D01*
X142176821Y-114196821D02*
X141480000Y-113500000D01*
X141480000Y-113500000D02*
X140700000Y-113500000D01*
X140700000Y-112550000D02*
X140700000Y-110200000D01*
X140700000Y-110200000D02*
X140900000Y-110000000D01*
X143773497Y-113746811D02*
X142696799Y-113746811D01*
X142696799Y-113746811D02*
X141499988Y-112550000D01*
X141499988Y-112550000D02*
X141480000Y-112550000D01*
X141480000Y-112550000D02*
X140700000Y-112550000D01*
X149000000Y-118300000D02*
X148393739Y-118300000D01*
X148393739Y-118300000D02*
X147950000Y-117856261D01*
X147950000Y-117856261D02*
X147950000Y-116700000D01*
D25*
G36*
X169873000Y-83052606D02*
X169873000Y-135961548D01*
X167932032Y-138873000D01*
X155073023Y-138873000D01*
X155211863Y-138804828D01*
X155499102Y-138464138D01*
X155634100Y-138039460D01*
X155634100Y-137764460D01*
X154626100Y-137764460D01*
X154626100Y-137784460D01*
X154372100Y-137784460D01*
X154372100Y-137764460D01*
X153364100Y-137764460D01*
X153364100Y-138039460D01*
X153499098Y-138464138D01*
X153786337Y-138804828D01*
X153925177Y-138873000D01*
X148073023Y-138873000D01*
X148211863Y-138804828D01*
X148499102Y-138464138D01*
X148634100Y-138039460D01*
X148634100Y-137764460D01*
X147626100Y-137764460D01*
X147626100Y-137784460D01*
X147372100Y-137784460D01*
X147372100Y-137764460D01*
X146364100Y-137764460D01*
X146364100Y-138039460D01*
X146499098Y-138464138D01*
X146786337Y-138804828D01*
X146925177Y-138873000D01*
X143876240Y-138873000D01*
X143876240Y-137235460D01*
X146364100Y-137235460D01*
X146364100Y-137510460D01*
X147372100Y-137510460D01*
X147372100Y-136394506D01*
X147626100Y-136394506D01*
X147626100Y-137510460D01*
X148634100Y-137510460D01*
X148634100Y-137235460D01*
X153364100Y-137235460D01*
X153364100Y-137510460D01*
X154372100Y-137510460D01*
X154372100Y-136394506D01*
X154626100Y-136394506D01*
X154626100Y-137510460D01*
X155634100Y-137510460D01*
X155634100Y-137235460D01*
X155618113Y-137185167D01*
X156364838Y-137185167D01*
X156506883Y-137528943D01*
X156769673Y-137792192D01*
X157113201Y-137934838D01*
X157378853Y-137935069D01*
X157485910Y-138101441D01*
X157698110Y-138246431D01*
X157950000Y-138297440D01*
X159450000Y-138297440D01*
X159685317Y-138253162D01*
X159901441Y-138114090D01*
X160046431Y-137901890D01*
X160053191Y-137868510D01*
X160111673Y-138009699D01*
X160290302Y-138188327D01*
X160523691Y-138285000D01*
X161114250Y-138285000D01*
X161273000Y-138126250D01*
X161273000Y-137127000D01*
X161527000Y-137127000D01*
X161527000Y-138126250D01*
X161685750Y-138285000D01*
X162276309Y-138285000D01*
X162509698Y-138188327D01*
X162688327Y-138009699D01*
X162785000Y-137776310D01*
X162785000Y-137285750D01*
X162626250Y-137127000D01*
X161527000Y-137127000D01*
X161273000Y-137127000D01*
X161253000Y-137127000D01*
X161253000Y-136873000D01*
X161273000Y-136873000D01*
X161273000Y-135873750D01*
X161527000Y-135873750D01*
X161527000Y-136873000D01*
X162626250Y-136873000D01*
X162785000Y-136714250D01*
X162785000Y-136223690D01*
X162688327Y-135990301D01*
X162509698Y-135811673D01*
X162276309Y-135715000D01*
X161685750Y-135715000D01*
X161527000Y-135873750D01*
X161273000Y-135873750D01*
X161114250Y-135715000D01*
X160523691Y-135715000D01*
X160290302Y-135811673D01*
X160111673Y-135990301D01*
X160055346Y-136126287D01*
X160053162Y-136114683D01*
X159914090Y-135898559D01*
X159701890Y-135753569D01*
X159450000Y-135702560D01*
X157950000Y-135702560D01*
X157714683Y-135746838D01*
X157498559Y-135885910D01*
X157376147Y-136065066D01*
X157114833Y-136064838D01*
X156771057Y-136206883D01*
X156507808Y-136469673D01*
X156365162Y-136813201D01*
X156364838Y-137185167D01*
X155618113Y-137185167D01*
X155499102Y-136810782D01*
X155211863Y-136470092D01*
X154800974Y-136268341D01*
X154626100Y-136394506D01*
X154372100Y-136394506D01*
X154197226Y-136268341D01*
X153786337Y-136470092D01*
X153499098Y-136810782D01*
X153364100Y-137235460D01*
X148634100Y-137235460D01*
X148499102Y-136810782D01*
X148211863Y-136470092D01*
X147800974Y-136268341D01*
X147626100Y-136394506D01*
X147372100Y-136394506D01*
X147197226Y-136268341D01*
X146786337Y-136470092D01*
X146499098Y-136810782D01*
X146364100Y-137235460D01*
X143876240Y-137235460D01*
X143876240Y-137084000D01*
X143831962Y-136848683D01*
X143692890Y-136632559D01*
X143480690Y-136487569D01*
X143228800Y-136436560D01*
X139571200Y-136436560D01*
X139335883Y-136480838D01*
X139119759Y-136619910D01*
X138974769Y-136832110D01*
X138923760Y-137084000D01*
X138923760Y-138873000D01*
X134052606Y-138873000D01*
X132127000Y-136947394D01*
X132127000Y-128920000D01*
X132316655Y-128920000D01*
X132430729Y-129493489D01*
X132755585Y-129979670D01*
X133070366Y-130190000D01*
X132755585Y-130400330D01*
X132430729Y-130886511D01*
X132316655Y-131460000D01*
X132430729Y-132033489D01*
X132755585Y-132519670D01*
X132769913Y-132529243D01*
X132748683Y-132533238D01*
X132532559Y-132672310D01*
X132387569Y-132884510D01*
X132336560Y-133136400D01*
X132336560Y-134863600D01*
X132380838Y-135098917D01*
X132519910Y-135315041D01*
X132732110Y-135460031D01*
X132984000Y-135511040D01*
X135016000Y-135511040D01*
X135251317Y-135466762D01*
X135467441Y-135327690D01*
X135530501Y-135235398D01*
X147279832Y-135235398D01*
X147463548Y-135609281D01*
X147788051Y-135897028D01*
X148197969Y-136038689D01*
X148372100Y-135890023D01*
X148372100Y-135064460D01*
X148626100Y-135064460D01*
X148626100Y-135890023D01*
X148800231Y-136038689D01*
X149210149Y-135897028D01*
X149534652Y-135609281D01*
X149718368Y-135235398D01*
X152279832Y-135235398D01*
X152463548Y-135609281D01*
X152788051Y-135897028D01*
X153197969Y-136038689D01*
X153372100Y-135890023D01*
X153372100Y-135064460D01*
X153626100Y-135064460D01*
X153626100Y-135890023D01*
X153800231Y-136038689D01*
X154210149Y-135897028D01*
X154534652Y-135609281D01*
X154718368Y-135235398D01*
X154591834Y-135064460D01*
X153626100Y-135064460D01*
X153372100Y-135064460D01*
X152406366Y-135064460D01*
X152279832Y-135235398D01*
X149718368Y-135235398D01*
X149591834Y-135064460D01*
X148626100Y-135064460D01*
X148372100Y-135064460D01*
X147406366Y-135064460D01*
X147279832Y-135235398D01*
X135530501Y-135235398D01*
X135612431Y-135115490D01*
X135663440Y-134863600D01*
X135663440Y-134639522D01*
X147279832Y-134639522D01*
X147406366Y-134810460D01*
X148372100Y-134810460D01*
X148372100Y-133984897D01*
X148626100Y-133984897D01*
X148626100Y-134810460D01*
X149591834Y-134810460D01*
X149718368Y-134639522D01*
X152279832Y-134639522D01*
X152406366Y-134810460D01*
X153372100Y-134810460D01*
X153372100Y-133984897D01*
X153626100Y-133984897D01*
X153626100Y-134810460D01*
X154591834Y-134810460D01*
X154718368Y-134639522D01*
X154534652Y-134265639D01*
X154210149Y-133977892D01*
X154100503Y-133940000D01*
X166316655Y-133940000D01*
X166430729Y-134513489D01*
X166755585Y-134999670D01*
X167241766Y-135324526D01*
X167815255Y-135438600D01*
X168184745Y-135438600D01*
X168758234Y-135324526D01*
X169244415Y-134999670D01*
X169569271Y-134513489D01*
X169683345Y-133940000D01*
X169569271Y-133366511D01*
X169244415Y-132880330D01*
X168934931Y-132673539D01*
X169350732Y-132302036D01*
X169604709Y-131774791D01*
X169607358Y-131759026D01*
X169486217Y-131527000D01*
X168127000Y-131527000D01*
X168127000Y-131547000D01*
X167873000Y-131547000D01*
X167873000Y-131527000D01*
X166513783Y-131527000D01*
X166392642Y-131759026D01*
X166395291Y-131774791D01*
X166649268Y-132302036D01*
X167065069Y-132673539D01*
X166755585Y-132880330D01*
X166430729Y-133366511D01*
X166316655Y-133940000D01*
X154100503Y-133940000D01*
X153800231Y-133836231D01*
X153626100Y-133984897D01*
X153372100Y-133984897D01*
X153197969Y-133836231D01*
X152788051Y-133977892D01*
X152463548Y-134265639D01*
X152279832Y-134639522D01*
X149718368Y-134639522D01*
X149534652Y-134265639D01*
X149210149Y-133977892D01*
X148800231Y-133836231D01*
X148626100Y-133984897D01*
X148372100Y-133984897D01*
X148197969Y-133836231D01*
X147788051Y-133977892D01*
X147463548Y-134265639D01*
X147279832Y-134639522D01*
X135663440Y-134639522D01*
X135663440Y-133136400D01*
X135619162Y-132901083D01*
X135480090Y-132684959D01*
X135267890Y-132539969D01*
X135226561Y-132531600D01*
X135244415Y-132519670D01*
X135569271Y-132033489D01*
X135619344Y-131781750D01*
X137971000Y-131781750D01*
X137971000Y-132638310D01*
X138067673Y-132871699D01*
X138246302Y-133050327D01*
X138479691Y-133147000D01*
X138828250Y-133147000D01*
X138987000Y-132988250D01*
X138987000Y-131623000D01*
X138129750Y-131623000D01*
X137971000Y-131781750D01*
X135619344Y-131781750D01*
X135683345Y-131460000D01*
X135569271Y-130886511D01*
X135244415Y-130400330D01*
X135174614Y-130353690D01*
X137971000Y-130353690D01*
X137971000Y-131210250D01*
X138129750Y-131369000D01*
X138987000Y-131369000D01*
X138987000Y-130003750D01*
X138828250Y-129845000D01*
X138479691Y-129845000D01*
X138246302Y-129941673D01*
X138067673Y-130120301D01*
X137971000Y-130353690D01*
X135174614Y-130353690D01*
X134929634Y-130190000D01*
X135244415Y-129979670D01*
X135569271Y-129493489D01*
X135683345Y-128920000D01*
X135569271Y-128346511D01*
X135244415Y-127860330D01*
X134934931Y-127653539D01*
X135350732Y-127282036D01*
X135604709Y-126754791D01*
X135607358Y-126739026D01*
X135486217Y-126507000D01*
X134127000Y-126507000D01*
X134127000Y-126527000D01*
X133873000Y-126527000D01*
X133873000Y-126507000D01*
X132513783Y-126507000D01*
X132392642Y-126739026D01*
X132395291Y-126754791D01*
X132649268Y-127282036D01*
X133065069Y-127653539D01*
X132755585Y-127860330D01*
X132430729Y-128346511D01*
X132316655Y-128920000D01*
X132127000Y-128920000D01*
X132127000Y-85740000D01*
X132316655Y-85740000D01*
X132430729Y-86313489D01*
X132755585Y-86799670D01*
X133070366Y-87010000D01*
X132755585Y-87220330D01*
X132430729Y-87706511D01*
X132316655Y-88280000D01*
X132430729Y-88853489D01*
X132755585Y-89339670D01*
X133070366Y-89550000D01*
X132755585Y-89760330D01*
X132430729Y-90246511D01*
X132316655Y-90820000D01*
X132430729Y-91393489D01*
X132755585Y-91879670D01*
X133070366Y-92090000D01*
X132755585Y-92300330D01*
X132430729Y-92786511D01*
X132316655Y-93360000D01*
X132430729Y-93933489D01*
X132755585Y-94419670D01*
X133070366Y-94630000D01*
X132755585Y-94840330D01*
X132430729Y-95326511D01*
X132316655Y-95900000D01*
X132430729Y-96473489D01*
X132755585Y-96959670D01*
X133070366Y-97170000D01*
X132755585Y-97380330D01*
X132430729Y-97866511D01*
X132316655Y-98440000D01*
X132430729Y-99013489D01*
X132755585Y-99499670D01*
X133070366Y-99710000D01*
X132755585Y-99920330D01*
X132430729Y-100406511D01*
X132316655Y-100980000D01*
X132430729Y-101553489D01*
X132755585Y-102039670D01*
X133070366Y-102250000D01*
X132755585Y-102460330D01*
X132430729Y-102946511D01*
X132316655Y-103520000D01*
X132430729Y-104093489D01*
X132755585Y-104579670D01*
X133070366Y-104790000D01*
X132755585Y-105000330D01*
X132430729Y-105486511D01*
X132316655Y-106060000D01*
X132430729Y-106633489D01*
X132755585Y-107119670D01*
X133070366Y-107330000D01*
X132755585Y-107540330D01*
X132430729Y-108026511D01*
X132316655Y-108600000D01*
X132430729Y-109173489D01*
X132755585Y-109659670D01*
X133070366Y-109870000D01*
X132755585Y-110080330D01*
X132430729Y-110566511D01*
X132316655Y-111140000D01*
X132430729Y-111713489D01*
X132755585Y-112199670D01*
X133070366Y-112410000D01*
X132755585Y-112620330D01*
X132430729Y-113106511D01*
X132316655Y-113680000D01*
X132430729Y-114253489D01*
X132755585Y-114739670D01*
X133070366Y-114950000D01*
X132755585Y-115160330D01*
X132430729Y-115646511D01*
X132316655Y-116220000D01*
X132430729Y-116793489D01*
X132755585Y-117279670D01*
X133070366Y-117490000D01*
X132755585Y-117700330D01*
X132430729Y-118186511D01*
X132316655Y-118760000D01*
X132430729Y-119333489D01*
X132755585Y-119819670D01*
X133070366Y-120030000D01*
X132755585Y-120240330D01*
X132430729Y-120726511D01*
X132316655Y-121300000D01*
X132430729Y-121873489D01*
X132755585Y-122359670D01*
X133070366Y-122570000D01*
X132755585Y-122780330D01*
X132430729Y-123266511D01*
X132316655Y-123840000D01*
X132430729Y-124413489D01*
X132755585Y-124899670D01*
X133065069Y-125106461D01*
X132649268Y-125477964D01*
X132395291Y-126005209D01*
X132392642Y-126020974D01*
X132513783Y-126253000D01*
X133873000Y-126253000D01*
X133873000Y-126233000D01*
X134127000Y-126233000D01*
X134127000Y-126253000D01*
X135486217Y-126253000D01*
X135607358Y-126020974D01*
X135604709Y-126005209D01*
X135350732Y-125477964D01*
X134934931Y-125106461D01*
X135244415Y-124899670D01*
X135569271Y-124413489D01*
X135683345Y-123840000D01*
X135569271Y-123266511D01*
X135244415Y-122780330D01*
X134929634Y-122570000D01*
X135244415Y-122359670D01*
X135569271Y-121873489D01*
X135683345Y-121300000D01*
X135569271Y-120726511D01*
X135244415Y-120240330D01*
X134929634Y-120030000D01*
X135244415Y-119819670D01*
X135569271Y-119333489D01*
X135683345Y-118760000D01*
X135569271Y-118186511D01*
X135244415Y-117700330D01*
X134929634Y-117490000D01*
X135244415Y-117279670D01*
X135569271Y-116793489D01*
X135590701Y-116685750D01*
X136915000Y-116685750D01*
X136915000Y-117151310D01*
X137011673Y-117384699D01*
X137190302Y-117563327D01*
X137423691Y-117660000D01*
X138014250Y-117660000D01*
X138173000Y-117501250D01*
X138173000Y-116527000D01*
X137073750Y-116527000D01*
X136915000Y-116685750D01*
X135590701Y-116685750D01*
X135683345Y-116220000D01*
X135569271Y-115646511D01*
X135244415Y-115160330D01*
X134929634Y-114950000D01*
X135244415Y-114739670D01*
X135569271Y-114253489D01*
X135683345Y-113680000D01*
X135569271Y-113106511D01*
X135244415Y-112620330D01*
X134929634Y-112410000D01*
X135244415Y-112199670D01*
X135569271Y-111713489D01*
X135660928Y-111252699D01*
X135798110Y-111346431D01*
X135940000Y-111375164D01*
X135940000Y-114214223D01*
X135997852Y-114505062D01*
X136162599Y-114751624D01*
X136957371Y-115546396D01*
X136915000Y-115648690D01*
X136915000Y-116114250D01*
X137073750Y-116273000D01*
X138173000Y-116273000D01*
X138173000Y-116253000D01*
X138427000Y-116253000D01*
X138427000Y-116273000D01*
X138447000Y-116273000D01*
X138447000Y-116527000D01*
X138427000Y-116527000D01*
X138427000Y-117501250D01*
X138585750Y-117660000D01*
X139028499Y-117660000D01*
X139035149Y-117669953D01*
X139427609Y-118062413D01*
X139674170Y-118227160D01*
X139965010Y-118285012D01*
X140113232Y-118285012D01*
X140145368Y-118317204D01*
X140488896Y-118459850D01*
X140840000Y-118460156D01*
X140840000Y-127795925D01*
X140697852Y-128008665D01*
X140640000Y-128299504D01*
X140640000Y-129887573D01*
X140440559Y-130015910D01*
X140295569Y-130228110D01*
X140257000Y-130418569D01*
X140257000Y-130353690D01*
X140160327Y-130120301D01*
X139981698Y-129941673D01*
X139748309Y-129845000D01*
X139399750Y-129845000D01*
X139241000Y-130003750D01*
X139241000Y-131369000D01*
X139261000Y-131369000D01*
X139261000Y-131623000D01*
X139241000Y-131623000D01*
X139241000Y-132988250D01*
X139399750Y-133147000D01*
X139748309Y-133147000D01*
X139981698Y-133050327D01*
X140160327Y-132871699D01*
X140257000Y-132638310D01*
X140257000Y-132578113D01*
X140288838Y-132747317D01*
X140427910Y-132963441D01*
X140640110Y-133108431D01*
X140694932Y-133119533D01*
X140697852Y-133134213D01*
X140862599Y-133380775D01*
X141119225Y-133637401D01*
X141365787Y-133802148D01*
X141656626Y-133860000D01*
X141837537Y-133860000D01*
X141869673Y-133892192D01*
X142213201Y-134034838D01*
X142585167Y-134035162D01*
X142928943Y-133893117D01*
X143192192Y-133630327D01*
X143334838Y-133286799D01*
X143334949Y-133159440D01*
X144194000Y-133159440D01*
X144429317Y-133115162D01*
X144645441Y-132976090D01*
X144790431Y-132763890D01*
X144841440Y-132512000D01*
X144841440Y-132185478D01*
X145681018Y-132185478D01*
X145712697Y-132217212D01*
X146056225Y-132359858D01*
X146428191Y-132360182D01*
X146771967Y-132218137D01*
X147035216Y-131955347D01*
X147177862Y-131611819D01*
X147177907Y-131560000D01*
X157737537Y-131560000D01*
X157769673Y-131592192D01*
X158113201Y-131734838D01*
X158485167Y-131735162D01*
X158828943Y-131593117D01*
X159092192Y-131330327D01*
X159234838Y-130986799D01*
X159235162Y-130614833D01*
X159093117Y-130271057D01*
X159060000Y-130237882D01*
X159060000Y-129237279D01*
X159251441Y-129114090D01*
X159396431Y-128901890D01*
X159447440Y-128650000D01*
X159447440Y-127350000D01*
X159403162Y-127114683D01*
X159264090Y-126898559D01*
X159051890Y-126753569D01*
X158800000Y-126702560D01*
X157300000Y-126702560D01*
X157064683Y-126746838D01*
X156848559Y-126885910D01*
X156703569Y-127098110D01*
X156700919Y-127111197D01*
X156564090Y-126898559D01*
X156351890Y-126753569D01*
X156264566Y-126735885D01*
X156264610Y-126685385D01*
X156122565Y-126341609D01*
X155859775Y-126078360D01*
X155516247Y-125935714D01*
X155144281Y-125935390D01*
X154800505Y-126077435D01*
X154537256Y-126340225D01*
X154394610Y-126683753D01*
X154394560Y-126741216D01*
X154364683Y-126746838D01*
X154243635Y-126824730D01*
X154215049Y-126796144D01*
X154212294Y-126792021D01*
X154144770Y-126724497D01*
X153898208Y-126559750D01*
X153607369Y-126501898D01*
X152618278Y-126501898D01*
X152618278Y-124552729D01*
X152742331Y-124552837D01*
X153086107Y-124410792D01*
X153349356Y-124148002D01*
X153492002Y-123804474D01*
X153492088Y-123705564D01*
X153552148Y-123615678D01*
X153610000Y-123324839D01*
X153610000Y-119136190D01*
X153787428Y-119209865D01*
X154159394Y-119210189D01*
X154503170Y-119068144D01*
X154766419Y-118805354D01*
X154909065Y-118461826D01*
X154909389Y-118089860D01*
X154767344Y-117746084D01*
X154734227Y-117712909D01*
X154734227Y-115424227D01*
X154676375Y-115133388D01*
X154511628Y-114886826D01*
X154247440Y-114622638D01*
X154247440Y-114010000D01*
X154537537Y-114010000D01*
X154569673Y-114042192D01*
X154913201Y-114184838D01*
X155285167Y-114185162D01*
X155356829Y-114155552D01*
X155371838Y-114235317D01*
X155510910Y-114451441D01*
X155723110Y-114596431D01*
X155975000Y-114647440D01*
X157225000Y-114647440D01*
X157460317Y-114603162D01*
X157676441Y-114464090D01*
X157821431Y-114251890D01*
X157872440Y-114000000D01*
X157872440Y-112500000D01*
X157828162Y-112264683D01*
X157689090Y-112048559D01*
X157620994Y-112002031D01*
X157763327Y-111859698D01*
X157860000Y-111626309D01*
X157860000Y-111035750D01*
X157701250Y-110877000D01*
X156727000Y-110877000D01*
X156727000Y-110897000D01*
X156473000Y-110897000D01*
X156473000Y-110877000D01*
X155498750Y-110877000D01*
X155340000Y-111035750D01*
X155340000Y-111626309D01*
X155436673Y-111859698D01*
X155577910Y-112000936D01*
X155523559Y-112035910D01*
X155378569Y-112248110D01*
X155358926Y-112345112D01*
X155286799Y-112315162D01*
X154914833Y-112314838D01*
X154571057Y-112456883D01*
X154537882Y-112490000D01*
X149493358Y-112490000D01*
X149493358Y-111313917D01*
X149525550Y-111281781D01*
X149668196Y-110938253D01*
X149668520Y-110566287D01*
X149526475Y-110222511D01*
X149263685Y-109959262D01*
X148920157Y-109816616D01*
X148548191Y-109816292D01*
X148204415Y-109958337D01*
X148185719Y-109977000D01*
X147327000Y-109977000D01*
X147327000Y-111923000D01*
X147347000Y-111923000D01*
X147347000Y-112177000D01*
X147327000Y-112177000D01*
X147327000Y-112197000D01*
X147073000Y-112197000D01*
X147073000Y-112177000D01*
X146098750Y-112177000D01*
X145940000Y-112335750D01*
X145940000Y-112593336D01*
X145761510Y-112712599D01*
X145568860Y-112905249D01*
X145404113Y-113151811D01*
X145346261Y-113442650D01*
X145346261Y-114698254D01*
X145296354Y-114748161D01*
X144063943Y-114748161D01*
X144118923Y-114615755D01*
X144302440Y-114539928D01*
X144565689Y-114277138D01*
X144708335Y-113933610D01*
X144708527Y-113713672D01*
X144892192Y-113530327D01*
X145034838Y-113186799D01*
X145035162Y-112814833D01*
X144893117Y-112471057D01*
X144630327Y-112207808D01*
X144286799Y-112065162D01*
X143914833Y-112064838D01*
X143571057Y-112206883D01*
X143537882Y-112240000D01*
X143279232Y-112240000D01*
X143168107Y-111971057D01*
X142905317Y-111707808D01*
X142561789Y-111565162D01*
X142189823Y-111564838D01*
X141846047Y-111706883D01*
X141727400Y-111825324D01*
X141694090Y-111773559D01*
X141481890Y-111628569D01*
X141460000Y-111624136D01*
X141460000Y-111397440D01*
X141550000Y-111397440D01*
X141785317Y-111353162D01*
X142001441Y-111214090D01*
X142044846Y-111150565D01*
X142248690Y-111235000D01*
X142714250Y-111235000D01*
X142873000Y-111076250D01*
X142873000Y-109977000D01*
X143127000Y-109977000D01*
X143127000Y-111076250D01*
X143285750Y-111235000D01*
X143751310Y-111235000D01*
X143984699Y-111138327D01*
X144050000Y-111073026D01*
X144115301Y-111138327D01*
X144348690Y-111235000D01*
X144814250Y-111235000D01*
X144973000Y-111076250D01*
X144973000Y-109977000D01*
X145227000Y-109977000D01*
X145227000Y-111076250D01*
X145385750Y-111235000D01*
X145851310Y-111235000D01*
X145940000Y-111198263D01*
X145940000Y-111764250D01*
X146098750Y-111923000D01*
X147073000Y-111923000D01*
X147073000Y-109977000D01*
X145227000Y-109977000D01*
X144973000Y-109977000D01*
X143127000Y-109977000D01*
X142873000Y-109977000D01*
X142853000Y-109977000D01*
X142853000Y-109723000D01*
X142873000Y-109723000D01*
X142873000Y-109703000D01*
X143127000Y-109703000D01*
X143127000Y-109723000D01*
X144973000Y-109723000D01*
X144973000Y-109703000D01*
X145227000Y-109703000D01*
X145227000Y-109723000D01*
X147073000Y-109723000D01*
X147073000Y-109703000D01*
X147327000Y-109703000D01*
X147327000Y-109723000D01*
X148301250Y-109723000D01*
X148460000Y-109564250D01*
X148460000Y-108973691D01*
X148363327Y-108740302D01*
X148222090Y-108599064D01*
X148276441Y-108564090D01*
X148421431Y-108351890D01*
X148470415Y-108110000D01*
X149799868Y-108110000D01*
X150090707Y-108052148D01*
X150337269Y-107887401D01*
X150864670Y-107360000D01*
X150940000Y-107360000D01*
X150940000Y-108490559D01*
X150904117Y-108526379D01*
X150761471Y-108869907D01*
X150761147Y-109241873D01*
X150903192Y-109585649D01*
X151165982Y-109848898D01*
X151509510Y-109991544D01*
X151881476Y-109991868D01*
X152167486Y-109873691D01*
X155340000Y-109873691D01*
X155340000Y-110464250D01*
X155498750Y-110623000D01*
X156473000Y-110623000D01*
X156473000Y-109523750D01*
X156727000Y-109523750D01*
X156727000Y-110623000D01*
X157701250Y-110623000D01*
X157860000Y-110464250D01*
X157860000Y-109873691D01*
X157763327Y-109640302D01*
X157584699Y-109461673D01*
X157351310Y-109365000D01*
X156885750Y-109365000D01*
X156727000Y-109523750D01*
X156473000Y-109523750D01*
X156314250Y-109365000D01*
X155848690Y-109365000D01*
X155615301Y-109461673D01*
X155436673Y-109640302D01*
X155340000Y-109873691D01*
X152167486Y-109873691D01*
X152225252Y-109849823D01*
X152488501Y-109587033D01*
X152631147Y-109243505D01*
X152631229Y-109148826D01*
X152709071Y-109226803D01*
X153052599Y-109369449D01*
X153424565Y-109369773D01*
X153768341Y-109227728D01*
X154031590Y-108964938D01*
X154174236Y-108621410D01*
X154174560Y-108249444D01*
X154032515Y-107905668D01*
X154009247Y-107882359D01*
X154009247Y-107687086D01*
X154041439Y-107654950D01*
X154184085Y-107311422D01*
X154184409Y-106939456D01*
X154042364Y-106595680D01*
X153985517Y-106538733D01*
X154023000Y-106501250D01*
X154023000Y-105527000D01*
X154277000Y-105527000D01*
X154277000Y-106501250D01*
X154435750Y-106660000D01*
X155026309Y-106660000D01*
X155259698Y-106563327D01*
X155438327Y-106384699D01*
X155535000Y-106151310D01*
X155535000Y-105685750D01*
X155376250Y-105527000D01*
X154277000Y-105527000D01*
X154023000Y-105527000D01*
X154003000Y-105527000D01*
X154003000Y-105273000D01*
X154023000Y-105273000D01*
X154023000Y-104298750D01*
X154277000Y-104298750D01*
X154277000Y-105273000D01*
X155376250Y-105273000D01*
X155535000Y-105114250D01*
X155535000Y-104648690D01*
X155438327Y-104415301D01*
X155259698Y-104236673D01*
X155026309Y-104140000D01*
X154435750Y-104140000D01*
X154277000Y-104298750D01*
X154023000Y-104298750D01*
X153864250Y-104140000D01*
X153273691Y-104140000D01*
X153040302Y-104236673D01*
X152899064Y-104377910D01*
X152864090Y-104323559D01*
X152785860Y-104270107D01*
X152785860Y-103598010D01*
X153001220Y-103598010D01*
X153236537Y-103553732D01*
X153399228Y-103449043D01*
X153439082Y-103488897D01*
X153672471Y-103585570D01*
X154488390Y-103585570D01*
X154647140Y-103426820D01*
X154647140Y-102327000D01*
X154901140Y-102327000D01*
X154901140Y-103426820D01*
X155059890Y-103585570D01*
X155875809Y-103585570D01*
X156109198Y-103488897D01*
X156287827Y-103310269D01*
X156384500Y-103076880D01*
X156384500Y-102485750D01*
X156225750Y-102327000D01*
X154901140Y-102327000D01*
X154647140Y-102327000D01*
X154627140Y-102327000D01*
X154627140Y-102073000D01*
X154647140Y-102073000D01*
X154647140Y-100973180D01*
X154901140Y-100973180D01*
X154901140Y-102073000D01*
X156225750Y-102073000D01*
X156384500Y-101914250D01*
X156384500Y-101323120D01*
X156287827Y-101089731D01*
X156109198Y-100911103D01*
X155875809Y-100814430D01*
X155059890Y-100814430D01*
X154901140Y-100973180D01*
X154647140Y-100973180D01*
X154488390Y-100814430D01*
X153672471Y-100814430D01*
X153439082Y-100911103D01*
X153398111Y-100952074D01*
X153253110Y-100852999D01*
X153001220Y-100801990D01*
X151050500Y-100801990D01*
X150815183Y-100846268D01*
X150599059Y-100985340D01*
X150562245Y-101039220D01*
X150559698Y-101036673D01*
X150326309Y-100940000D01*
X149735750Y-100940000D01*
X149577000Y-101098750D01*
X149577000Y-102073000D01*
X149597000Y-102073000D01*
X149597000Y-102327000D01*
X149577000Y-102327000D01*
X149577000Y-102347000D01*
X149323000Y-102347000D01*
X149323000Y-102327000D01*
X149303000Y-102327000D01*
X149303000Y-102073000D01*
X149323000Y-102073000D01*
X149323000Y-101098750D01*
X149164250Y-100940000D01*
X148573691Y-100940000D01*
X148340302Y-101036673D01*
X148199064Y-101177910D01*
X148164090Y-101123559D01*
X147951890Y-100978569D01*
X147700000Y-100927560D01*
X146200000Y-100927560D01*
X145964683Y-100971838D01*
X145748559Y-101110910D01*
X145603569Y-101323110D01*
X145552560Y-101575000D01*
X145552560Y-102825000D01*
X145596838Y-103060317D01*
X145735910Y-103276441D01*
X145948110Y-103421431D01*
X146200000Y-103472440D01*
X146226435Y-103472440D01*
X146247852Y-103580112D01*
X146412599Y-103826674D01*
X146525925Y-103940000D01*
X145973691Y-103940000D01*
X145740302Y-104036673D01*
X145561673Y-104215301D01*
X145465000Y-104448690D01*
X145465000Y-104914250D01*
X145579355Y-105028605D01*
X145486799Y-104990172D01*
X145114833Y-104989848D01*
X144771057Y-105131893D01*
X144507808Y-105394683D01*
X144365162Y-105738211D01*
X144364957Y-105973266D01*
X144239683Y-105996838D01*
X144047773Y-106120329D01*
X143930792Y-106040398D01*
X143931047Y-105747120D01*
X143789002Y-105403344D01*
X143526212Y-105140095D01*
X143182684Y-104997449D01*
X142810718Y-104997125D01*
X142466942Y-105139170D01*
X142203693Y-105401960D01*
X142061047Y-105745488D01*
X142060784Y-106047608D01*
X141998334Y-106087793D01*
X141801890Y-105953569D01*
X141550000Y-105902560D01*
X140250000Y-105902560D01*
X140014683Y-105946838D01*
X139848523Y-106053759D01*
X139701890Y-105953569D01*
X139450000Y-105902560D01*
X138150000Y-105902560D01*
X137914683Y-105946838D01*
X137748523Y-106053759D01*
X137601890Y-105953569D01*
X137350000Y-105902560D01*
X136050000Y-105902560D01*
X135814683Y-105946838D01*
X135678293Y-106034602D01*
X135569271Y-105486511D01*
X135244415Y-105000330D01*
X134929634Y-104790000D01*
X135244415Y-104579670D01*
X135569271Y-104093489D01*
X135683345Y-103520000D01*
X135569271Y-102946511D01*
X135244415Y-102460330D01*
X134929634Y-102250000D01*
X135244415Y-102039670D01*
X135569271Y-101553489D01*
X135683345Y-100980000D01*
X135569271Y-100406511D01*
X135244415Y-99920330D01*
X134929634Y-99710000D01*
X135244415Y-99499670D01*
X135569271Y-99013489D01*
X135683345Y-98440000D01*
X135569271Y-97866511D01*
X135244415Y-97380330D01*
X134929634Y-97170000D01*
X135244415Y-96959670D01*
X135569271Y-96473489D01*
X135683345Y-95900000D01*
X135569271Y-95326511D01*
X135244415Y-94840330D01*
X134929634Y-94630000D01*
X135244415Y-94419670D01*
X135569271Y-93933489D01*
X135683345Y-93360000D01*
X135569271Y-92786511D01*
X135244415Y-92300330D01*
X134929634Y-92090000D01*
X135244415Y-91879670D01*
X135569271Y-91393489D01*
X135683345Y-90820000D01*
X135569271Y-90246511D01*
X135244415Y-89760330D01*
X134929634Y-89550000D01*
X135244415Y-89339670D01*
X135569271Y-88853489D01*
X135683345Y-88280000D01*
X135671411Y-88220000D01*
X166316655Y-88220000D01*
X166430729Y-88793489D01*
X166755585Y-89279670D01*
X167070366Y-89490000D01*
X166755585Y-89700330D01*
X166430729Y-90186511D01*
X166316655Y-90760000D01*
X166430729Y-91333489D01*
X166755585Y-91819670D01*
X167070366Y-92030000D01*
X166755585Y-92240330D01*
X166430729Y-92726511D01*
X166316655Y-93300000D01*
X166430729Y-93873489D01*
X166755585Y-94359670D01*
X167070366Y-94570000D01*
X166755585Y-94780330D01*
X166430729Y-95266511D01*
X166316655Y-95840000D01*
X166430729Y-96413489D01*
X166755585Y-96899670D01*
X167070366Y-97110000D01*
X166755585Y-97320330D01*
X166430729Y-97806511D01*
X166316655Y-98380000D01*
X166430729Y-98953489D01*
X166755585Y-99439670D01*
X167070366Y-99650000D01*
X166755585Y-99860330D01*
X166430729Y-100346511D01*
X166316655Y-100920000D01*
X166430729Y-101493489D01*
X166755585Y-101979670D01*
X167070366Y-102190000D01*
X166755585Y-102400330D01*
X166430729Y-102886511D01*
X166316655Y-103460000D01*
X166430729Y-104033489D01*
X166755585Y-104519670D01*
X167070366Y-104730000D01*
X166755585Y-104940330D01*
X166430729Y-105426511D01*
X166316655Y-106000000D01*
X166430729Y-106573489D01*
X166755585Y-107059670D01*
X167070366Y-107270000D01*
X166755585Y-107480330D01*
X166430729Y-107966511D01*
X166316655Y-108540000D01*
X166430729Y-109113489D01*
X166755585Y-109599670D01*
X167070366Y-109810000D01*
X166755585Y-110020330D01*
X166430729Y-110506511D01*
X166316655Y-111080000D01*
X166430729Y-111653489D01*
X166755585Y-112139670D01*
X167070366Y-112350000D01*
X166755585Y-112560330D01*
X166430729Y-113046511D01*
X166316655Y-113620000D01*
X166430729Y-114193489D01*
X166755585Y-114679670D01*
X167070366Y-114890000D01*
X166755585Y-115100330D01*
X166430729Y-115586511D01*
X166316655Y-116160000D01*
X166430729Y-116733489D01*
X166755585Y-117219670D01*
X167070366Y-117430000D01*
X166755585Y-117640330D01*
X166430729Y-118126511D01*
X166316655Y-118700000D01*
X166430729Y-119273489D01*
X166755585Y-119759670D01*
X167070366Y-119970000D01*
X166755585Y-120180330D01*
X166430729Y-120666511D01*
X166316655Y-121240000D01*
X166430729Y-121813489D01*
X166755585Y-122299670D01*
X167070366Y-122510000D01*
X166755585Y-122720330D01*
X166430729Y-123206511D01*
X166316655Y-123780000D01*
X166430729Y-124353489D01*
X166755585Y-124839670D01*
X167070366Y-125050000D01*
X166755585Y-125260330D01*
X166430729Y-125746511D01*
X166316655Y-126320000D01*
X166430729Y-126893489D01*
X166755585Y-127379670D01*
X167070366Y-127590000D01*
X166755585Y-127800330D01*
X166430729Y-128286511D01*
X166316655Y-128860000D01*
X166430729Y-129433489D01*
X166755585Y-129919670D01*
X167065069Y-130126461D01*
X166649268Y-130497964D01*
X166395291Y-131025209D01*
X166392642Y-131040974D01*
X166513783Y-131273000D01*
X167873000Y-131273000D01*
X167873000Y-131253000D01*
X168127000Y-131253000D01*
X168127000Y-131273000D01*
X169486217Y-131273000D01*
X169607358Y-131040974D01*
X169604709Y-131025209D01*
X169350732Y-130497964D01*
X168934931Y-130126461D01*
X169244415Y-129919670D01*
X169569271Y-129433489D01*
X169683345Y-128860000D01*
X169569271Y-128286511D01*
X169244415Y-127800330D01*
X168929634Y-127590000D01*
X169244415Y-127379670D01*
X169569271Y-126893489D01*
X169683345Y-126320000D01*
X169569271Y-125746511D01*
X169244415Y-125260330D01*
X168929634Y-125050000D01*
X169244415Y-124839670D01*
X169569271Y-124353489D01*
X169683345Y-123780000D01*
X169569271Y-123206511D01*
X169244415Y-122720330D01*
X168929634Y-122510000D01*
X169244415Y-122299670D01*
X169569271Y-121813489D01*
X169683345Y-121240000D01*
X169569271Y-120666511D01*
X169244415Y-120180330D01*
X168929634Y-119970000D01*
X169244415Y-119759670D01*
X169569271Y-119273489D01*
X169683345Y-118700000D01*
X169569271Y-118126511D01*
X169244415Y-117640330D01*
X168929634Y-117430000D01*
X169244415Y-117219670D01*
X169569271Y-116733489D01*
X169683345Y-116160000D01*
X169569271Y-115586511D01*
X169244415Y-115100330D01*
X168929634Y-114890000D01*
X169244415Y-114679670D01*
X169569271Y-114193489D01*
X169683345Y-113620000D01*
X169569271Y-113046511D01*
X169244415Y-112560330D01*
X168929634Y-112350000D01*
X169244415Y-112139670D01*
X169569271Y-111653489D01*
X169683345Y-111080000D01*
X169569271Y-110506511D01*
X169244415Y-110020330D01*
X168929634Y-109810000D01*
X169244415Y-109599670D01*
X169569271Y-109113489D01*
X169683345Y-108540000D01*
X169569271Y-107966511D01*
X169244415Y-107480330D01*
X168929634Y-107270000D01*
X169244415Y-107059670D01*
X169569271Y-106573489D01*
X169683345Y-106000000D01*
X169569271Y-105426511D01*
X169244415Y-104940330D01*
X168929634Y-104730000D01*
X169244415Y-104519670D01*
X169569271Y-104033489D01*
X169683345Y-103460000D01*
X169569271Y-102886511D01*
X169244415Y-102400330D01*
X168929634Y-102190000D01*
X169244415Y-101979670D01*
X169569271Y-101493489D01*
X169683345Y-100920000D01*
X169569271Y-100346511D01*
X169244415Y-99860330D01*
X168929634Y-99650000D01*
X169244415Y-99439670D01*
X169569271Y-98953489D01*
X169683345Y-98380000D01*
X169569271Y-97806511D01*
X169244415Y-97320330D01*
X168929634Y-97110000D01*
X169244415Y-96899670D01*
X169569271Y-96413489D01*
X169683345Y-95840000D01*
X169569271Y-95266511D01*
X169244415Y-94780330D01*
X168929634Y-94570000D01*
X169244415Y-94359670D01*
X169569271Y-93873489D01*
X169683345Y-93300000D01*
X169569271Y-92726511D01*
X169244415Y-92240330D01*
X168929634Y-92030000D01*
X169244415Y-91819670D01*
X169569271Y-91333489D01*
X169683345Y-90760000D01*
X169569271Y-90186511D01*
X169244415Y-89700330D01*
X168929634Y-89490000D01*
X169244415Y-89279670D01*
X169569271Y-88793489D01*
X169683345Y-88220000D01*
X169569271Y-87646511D01*
X169244415Y-87160330D01*
X169230087Y-87150757D01*
X169251317Y-87146762D01*
X169467441Y-87007690D01*
X169612431Y-86795490D01*
X169663440Y-86543600D01*
X169663440Y-84816400D01*
X169619162Y-84581083D01*
X169480090Y-84364959D01*
X169267890Y-84219969D01*
X169016000Y-84168960D01*
X166984000Y-84168960D01*
X166748683Y-84213238D01*
X166532559Y-84352310D01*
X166387569Y-84564510D01*
X166336560Y-84816400D01*
X166336560Y-86543600D01*
X166380838Y-86778917D01*
X166519910Y-86995041D01*
X166732110Y-87140031D01*
X166773439Y-87148400D01*
X166755585Y-87160330D01*
X166430729Y-87646511D01*
X166316655Y-88220000D01*
X135671411Y-88220000D01*
X135569271Y-87706511D01*
X135244415Y-87220330D01*
X134929634Y-87010000D01*
X135244415Y-86799670D01*
X135569271Y-86313489D01*
X135683345Y-85740000D01*
X135569271Y-85166511D01*
X135244415Y-84680330D01*
X134758234Y-84355474D01*
X134184745Y-84241400D01*
X133815255Y-84241400D01*
X133241766Y-84355474D01*
X132755585Y-84680330D01*
X132430729Y-85166511D01*
X132316655Y-85740000D01*
X132127000Y-85740000D01*
X132127000Y-83052606D01*
X134052606Y-81127000D01*
X167947394Y-81127000D01*
X169873000Y-83052606D01*
X169873000Y-83052606D01*
G37*
X169873000Y-83052606D02*
X169873000Y-135961548D01*
X167932032Y-138873000D01*
X155073023Y-138873000D01*
X155211863Y-138804828D01*
X155499102Y-138464138D01*
X155634100Y-138039460D01*
X155634100Y-137764460D01*
X154626100Y-137764460D01*
X154626100Y-137784460D01*
X154372100Y-137784460D01*
X154372100Y-137764460D01*
X153364100Y-137764460D01*
X153364100Y-138039460D01*
X153499098Y-138464138D01*
X153786337Y-138804828D01*
X153925177Y-138873000D01*
X148073023Y-138873000D01*
X148211863Y-138804828D01*
X148499102Y-138464138D01*
X148634100Y-138039460D01*
X148634100Y-137764460D01*
X147626100Y-137764460D01*
X147626100Y-137784460D01*
X147372100Y-137784460D01*
X147372100Y-137764460D01*
X146364100Y-137764460D01*
X146364100Y-138039460D01*
X146499098Y-138464138D01*
X146786337Y-138804828D01*
X146925177Y-138873000D01*
X143876240Y-138873000D01*
X143876240Y-137235460D01*
X146364100Y-137235460D01*
X146364100Y-137510460D01*
X147372100Y-137510460D01*
X147372100Y-136394506D01*
X147626100Y-136394506D01*
X147626100Y-137510460D01*
X148634100Y-137510460D01*
X148634100Y-137235460D01*
X153364100Y-137235460D01*
X153364100Y-137510460D01*
X154372100Y-137510460D01*
X154372100Y-136394506D01*
X154626100Y-136394506D01*
X154626100Y-137510460D01*
X155634100Y-137510460D01*
X155634100Y-137235460D01*
X155618113Y-137185167D01*
X156364838Y-137185167D01*
X156506883Y-137528943D01*
X156769673Y-137792192D01*
X157113201Y-137934838D01*
X157378853Y-137935069D01*
X157485910Y-138101441D01*
X157698110Y-138246431D01*
X157950000Y-138297440D01*
X159450000Y-138297440D01*
X159685317Y-138253162D01*
X159901441Y-138114090D01*
X160046431Y-137901890D01*
X160053191Y-137868510D01*
X160111673Y-138009699D01*
X160290302Y-138188327D01*
X160523691Y-138285000D01*
X161114250Y-138285000D01*
X161273000Y-138126250D01*
X161273000Y-137127000D01*
X161527000Y-137127000D01*
X161527000Y-138126250D01*
X161685750Y-138285000D01*
X162276309Y-138285000D01*
X162509698Y-138188327D01*
X162688327Y-138009699D01*
X162785000Y-137776310D01*
X162785000Y-137285750D01*
X162626250Y-137127000D01*
X161527000Y-137127000D01*
X161273000Y-137127000D01*
X161253000Y-137127000D01*
X161253000Y-136873000D01*
X161273000Y-136873000D01*
X161273000Y-135873750D01*
X161527000Y-135873750D01*
X161527000Y-136873000D01*
X162626250Y-136873000D01*
X162785000Y-136714250D01*
X162785000Y-136223690D01*
X162688327Y-135990301D01*
X162509698Y-135811673D01*
X162276309Y-135715000D01*
X161685750Y-135715000D01*
X161527000Y-135873750D01*
X161273000Y-135873750D01*
X161114250Y-135715000D01*
X160523691Y-135715000D01*
X160290302Y-135811673D01*
X160111673Y-135990301D01*
X160055346Y-136126287D01*
X160053162Y-136114683D01*
X159914090Y-135898559D01*
X159701890Y-135753569D01*
X159450000Y-135702560D01*
X157950000Y-135702560D01*
X157714683Y-135746838D01*
X157498559Y-135885910D01*
X157376147Y-136065066D01*
X157114833Y-136064838D01*
X156771057Y-136206883D01*
X156507808Y-136469673D01*
X156365162Y-136813201D01*
X156364838Y-137185167D01*
X155618113Y-137185167D01*
X155499102Y-136810782D01*
X155211863Y-136470092D01*
X154800974Y-136268341D01*
X154626100Y-136394506D01*
X154372100Y-136394506D01*
X154197226Y-136268341D01*
X153786337Y-136470092D01*
X153499098Y-136810782D01*
X153364100Y-137235460D01*
X148634100Y-137235460D01*
X148499102Y-136810782D01*
X148211863Y-136470092D01*
X147800974Y-136268341D01*
X147626100Y-136394506D01*
X147372100Y-136394506D01*
X147197226Y-136268341D01*
X146786337Y-136470092D01*
X146499098Y-136810782D01*
X146364100Y-137235460D01*
X143876240Y-137235460D01*
X143876240Y-137084000D01*
X143831962Y-136848683D01*
X143692890Y-136632559D01*
X143480690Y-136487569D01*
X143228800Y-136436560D01*
X139571200Y-136436560D01*
X139335883Y-136480838D01*
X139119759Y-136619910D01*
X138974769Y-136832110D01*
X138923760Y-137084000D01*
X138923760Y-138873000D01*
X134052606Y-138873000D01*
X132127000Y-136947394D01*
X132127000Y-128920000D01*
X132316655Y-128920000D01*
X132430729Y-129493489D01*
X132755585Y-129979670D01*
X133070366Y-130190000D01*
X132755585Y-130400330D01*
X132430729Y-130886511D01*
X132316655Y-131460000D01*
X132430729Y-132033489D01*
X132755585Y-132519670D01*
X132769913Y-132529243D01*
X132748683Y-132533238D01*
X132532559Y-132672310D01*
X132387569Y-132884510D01*
X132336560Y-133136400D01*
X132336560Y-134863600D01*
X132380838Y-135098917D01*
X132519910Y-135315041D01*
X132732110Y-135460031D01*
X132984000Y-135511040D01*
X135016000Y-135511040D01*
X135251317Y-135466762D01*
X135467441Y-135327690D01*
X135530501Y-135235398D01*
X147279832Y-135235398D01*
X147463548Y-135609281D01*
X147788051Y-135897028D01*
X148197969Y-136038689D01*
X148372100Y-135890023D01*
X148372100Y-135064460D01*
X148626100Y-135064460D01*
X148626100Y-135890023D01*
X148800231Y-136038689D01*
X149210149Y-135897028D01*
X149534652Y-135609281D01*
X149718368Y-135235398D01*
X152279832Y-135235398D01*
X152463548Y-135609281D01*
X152788051Y-135897028D01*
X153197969Y-136038689D01*
X153372100Y-135890023D01*
X153372100Y-135064460D01*
X153626100Y-135064460D01*
X153626100Y-135890023D01*
X153800231Y-136038689D01*
X154210149Y-135897028D01*
X154534652Y-135609281D01*
X154718368Y-135235398D01*
X154591834Y-135064460D01*
X153626100Y-135064460D01*
X153372100Y-135064460D01*
X152406366Y-135064460D01*
X152279832Y-135235398D01*
X149718368Y-135235398D01*
X149591834Y-135064460D01*
X148626100Y-135064460D01*
X148372100Y-135064460D01*
X147406366Y-135064460D01*
X147279832Y-135235398D01*
X135530501Y-135235398D01*
X135612431Y-135115490D01*
X135663440Y-134863600D01*
X135663440Y-134639522D01*
X147279832Y-134639522D01*
X147406366Y-134810460D01*
X148372100Y-134810460D01*
X148372100Y-133984897D01*
X148626100Y-133984897D01*
X148626100Y-134810460D01*
X149591834Y-134810460D01*
X149718368Y-134639522D01*
X152279832Y-134639522D01*
X152406366Y-134810460D01*
X153372100Y-134810460D01*
X153372100Y-133984897D01*
X153626100Y-133984897D01*
X153626100Y-134810460D01*
X154591834Y-134810460D01*
X154718368Y-134639522D01*
X154534652Y-134265639D01*
X154210149Y-133977892D01*
X154100503Y-133940000D01*
X166316655Y-133940000D01*
X166430729Y-134513489D01*
X166755585Y-134999670D01*
X167241766Y-135324526D01*
X167815255Y-135438600D01*
X168184745Y-135438600D01*
X168758234Y-135324526D01*
X169244415Y-134999670D01*
X169569271Y-134513489D01*
X169683345Y-133940000D01*
X169569271Y-133366511D01*
X169244415Y-132880330D01*
X168934931Y-132673539D01*
X169350732Y-132302036D01*
X169604709Y-131774791D01*
X169607358Y-131759026D01*
X169486217Y-131527000D01*
X168127000Y-131527000D01*
X168127000Y-131547000D01*
X167873000Y-131547000D01*
X167873000Y-131527000D01*
X166513783Y-131527000D01*
X166392642Y-131759026D01*
X166395291Y-131774791D01*
X166649268Y-132302036D01*
X167065069Y-132673539D01*
X166755585Y-132880330D01*
X166430729Y-133366511D01*
X166316655Y-133940000D01*
X154100503Y-133940000D01*
X153800231Y-133836231D01*
X153626100Y-133984897D01*
X153372100Y-133984897D01*
X153197969Y-133836231D01*
X152788051Y-133977892D01*
X152463548Y-134265639D01*
X152279832Y-134639522D01*
X149718368Y-134639522D01*
X149534652Y-134265639D01*
X149210149Y-133977892D01*
X148800231Y-133836231D01*
X148626100Y-133984897D01*
X148372100Y-133984897D01*
X148197969Y-133836231D01*
X147788051Y-133977892D01*
X147463548Y-134265639D01*
X147279832Y-134639522D01*
X135663440Y-134639522D01*
X135663440Y-133136400D01*
X135619162Y-132901083D01*
X135480090Y-132684959D01*
X135267890Y-132539969D01*
X135226561Y-132531600D01*
X135244415Y-132519670D01*
X135569271Y-132033489D01*
X135619344Y-131781750D01*
X137971000Y-131781750D01*
X137971000Y-132638310D01*
X138067673Y-132871699D01*
X138246302Y-133050327D01*
X138479691Y-133147000D01*
X138828250Y-133147000D01*
X138987000Y-132988250D01*
X138987000Y-131623000D01*
X138129750Y-131623000D01*
X137971000Y-131781750D01*
X135619344Y-131781750D01*
X135683345Y-131460000D01*
X135569271Y-130886511D01*
X135244415Y-130400330D01*
X135174614Y-130353690D01*
X137971000Y-130353690D01*
X137971000Y-131210250D01*
X138129750Y-131369000D01*
X138987000Y-131369000D01*
X138987000Y-130003750D01*
X138828250Y-129845000D01*
X138479691Y-129845000D01*
X138246302Y-129941673D01*
X138067673Y-130120301D01*
X137971000Y-130353690D01*
X135174614Y-130353690D01*
X134929634Y-130190000D01*
X135244415Y-129979670D01*
X135569271Y-129493489D01*
X135683345Y-128920000D01*
X135569271Y-128346511D01*
X135244415Y-127860330D01*
X134934931Y-127653539D01*
X135350732Y-127282036D01*
X135604709Y-126754791D01*
X135607358Y-126739026D01*
X135486217Y-126507000D01*
X134127000Y-126507000D01*
X134127000Y-126527000D01*
X133873000Y-126527000D01*
X133873000Y-126507000D01*
X132513783Y-126507000D01*
X132392642Y-126739026D01*
X132395291Y-126754791D01*
X132649268Y-127282036D01*
X133065069Y-127653539D01*
X132755585Y-127860330D01*
X132430729Y-128346511D01*
X132316655Y-128920000D01*
X132127000Y-128920000D01*
X132127000Y-85740000D01*
X132316655Y-85740000D01*
X132430729Y-86313489D01*
X132755585Y-86799670D01*
X133070366Y-87010000D01*
X132755585Y-87220330D01*
X132430729Y-87706511D01*
X132316655Y-88280000D01*
X132430729Y-88853489D01*
X132755585Y-89339670D01*
X133070366Y-89550000D01*
X132755585Y-89760330D01*
X132430729Y-90246511D01*
X132316655Y-90820000D01*
X132430729Y-91393489D01*
X132755585Y-91879670D01*
X133070366Y-92090000D01*
X132755585Y-92300330D01*
X132430729Y-92786511D01*
X132316655Y-93360000D01*
X132430729Y-93933489D01*
X132755585Y-94419670D01*
X133070366Y-94630000D01*
X132755585Y-94840330D01*
X132430729Y-95326511D01*
X132316655Y-95900000D01*
X132430729Y-96473489D01*
X132755585Y-96959670D01*
X133070366Y-97170000D01*
X132755585Y-97380330D01*
X132430729Y-97866511D01*
X132316655Y-98440000D01*
X132430729Y-99013489D01*
X132755585Y-99499670D01*
X133070366Y-99710000D01*
X132755585Y-99920330D01*
X132430729Y-100406511D01*
X132316655Y-100980000D01*
X132430729Y-101553489D01*
X132755585Y-102039670D01*
X133070366Y-102250000D01*
X132755585Y-102460330D01*
X132430729Y-102946511D01*
X132316655Y-103520000D01*
X132430729Y-104093489D01*
X132755585Y-104579670D01*
X133070366Y-104790000D01*
X132755585Y-105000330D01*
X132430729Y-105486511D01*
X132316655Y-106060000D01*
X132430729Y-106633489D01*
X132755585Y-107119670D01*
X133070366Y-107330000D01*
X132755585Y-107540330D01*
X132430729Y-108026511D01*
X132316655Y-108600000D01*
X132430729Y-109173489D01*
X132755585Y-109659670D01*
X133070366Y-109870000D01*
X132755585Y-110080330D01*
X132430729Y-110566511D01*
X132316655Y-111140000D01*
X132430729Y-111713489D01*
X132755585Y-112199670D01*
X133070366Y-112410000D01*
X132755585Y-112620330D01*
X132430729Y-113106511D01*
X132316655Y-113680000D01*
X132430729Y-114253489D01*
X132755585Y-114739670D01*
X133070366Y-114950000D01*
X132755585Y-115160330D01*
X132430729Y-115646511D01*
X132316655Y-116220000D01*
X132430729Y-116793489D01*
X132755585Y-117279670D01*
X133070366Y-117490000D01*
X132755585Y-117700330D01*
X132430729Y-118186511D01*
X132316655Y-118760000D01*
X132430729Y-119333489D01*
X132755585Y-119819670D01*
X133070366Y-120030000D01*
X132755585Y-120240330D01*
X132430729Y-120726511D01*
X132316655Y-121300000D01*
X132430729Y-121873489D01*
X132755585Y-122359670D01*
X133070366Y-122570000D01*
X132755585Y-122780330D01*
X132430729Y-123266511D01*
X132316655Y-123840000D01*
X132430729Y-124413489D01*
X132755585Y-124899670D01*
X133065069Y-125106461D01*
X132649268Y-125477964D01*
X132395291Y-126005209D01*
X132392642Y-126020974D01*
X132513783Y-126253000D01*
X133873000Y-126253000D01*
X133873000Y-126233000D01*
X134127000Y-126233000D01*
X134127000Y-126253000D01*
X135486217Y-126253000D01*
X135607358Y-126020974D01*
X135604709Y-126005209D01*
X135350732Y-125477964D01*
X134934931Y-125106461D01*
X135244415Y-124899670D01*
X135569271Y-124413489D01*
X135683345Y-123840000D01*
X135569271Y-123266511D01*
X135244415Y-122780330D01*
X134929634Y-122570000D01*
X135244415Y-122359670D01*
X135569271Y-121873489D01*
X135683345Y-121300000D01*
X135569271Y-120726511D01*
X135244415Y-120240330D01*
X134929634Y-120030000D01*
X135244415Y-119819670D01*
X135569271Y-119333489D01*
X135683345Y-118760000D01*
X135569271Y-118186511D01*
X135244415Y-117700330D01*
X134929634Y-117490000D01*
X135244415Y-117279670D01*
X135569271Y-116793489D01*
X135590701Y-116685750D01*
X136915000Y-116685750D01*
X136915000Y-117151310D01*
X137011673Y-117384699D01*
X137190302Y-117563327D01*
X137423691Y-117660000D01*
X138014250Y-117660000D01*
X138173000Y-117501250D01*
X138173000Y-116527000D01*
X137073750Y-116527000D01*
X136915000Y-116685750D01*
X135590701Y-116685750D01*
X135683345Y-116220000D01*
X135569271Y-115646511D01*
X135244415Y-115160330D01*
X134929634Y-114950000D01*
X135244415Y-114739670D01*
X135569271Y-114253489D01*
X135683345Y-113680000D01*
X135569271Y-113106511D01*
X135244415Y-112620330D01*
X134929634Y-112410000D01*
X135244415Y-112199670D01*
X135569271Y-111713489D01*
X135660928Y-111252699D01*
X135798110Y-111346431D01*
X135940000Y-111375164D01*
X135940000Y-114214223D01*
X135997852Y-114505062D01*
X136162599Y-114751624D01*
X136957371Y-115546396D01*
X136915000Y-115648690D01*
X136915000Y-116114250D01*
X137073750Y-116273000D01*
X138173000Y-116273000D01*
X138173000Y-116253000D01*
X138427000Y-116253000D01*
X138427000Y-116273000D01*
X138447000Y-116273000D01*
X138447000Y-116527000D01*
X138427000Y-116527000D01*
X138427000Y-117501250D01*
X138585750Y-117660000D01*
X139028499Y-117660000D01*
X139035149Y-117669953D01*
X139427609Y-118062413D01*
X139674170Y-118227160D01*
X139965010Y-118285012D01*
X140113232Y-118285012D01*
X140145368Y-118317204D01*
X140488896Y-118459850D01*
X140840000Y-118460156D01*
X140840000Y-127795925D01*
X140697852Y-128008665D01*
X140640000Y-128299504D01*
X140640000Y-129887573D01*
X140440559Y-130015910D01*
X140295569Y-130228110D01*
X140257000Y-130418569D01*
X140257000Y-130353690D01*
X140160327Y-130120301D01*
X139981698Y-129941673D01*
X139748309Y-129845000D01*
X139399750Y-129845000D01*
X139241000Y-130003750D01*
X139241000Y-131369000D01*
X139261000Y-131369000D01*
X139261000Y-131623000D01*
X139241000Y-131623000D01*
X139241000Y-132988250D01*
X139399750Y-133147000D01*
X139748309Y-133147000D01*
X139981698Y-133050327D01*
X140160327Y-132871699D01*
X140257000Y-132638310D01*
X140257000Y-132578113D01*
X140288838Y-132747317D01*
X140427910Y-132963441D01*
X140640110Y-133108431D01*
X140694932Y-133119533D01*
X140697852Y-133134213D01*
X140862599Y-133380775D01*
X141119225Y-133637401D01*
X141365787Y-133802148D01*
X141656626Y-133860000D01*
X141837537Y-133860000D01*
X141869673Y-133892192D01*
X142213201Y-134034838D01*
X142585167Y-134035162D01*
X142928943Y-133893117D01*
X143192192Y-133630327D01*
X143334838Y-133286799D01*
X143334949Y-133159440D01*
X144194000Y-133159440D01*
X144429317Y-133115162D01*
X144645441Y-132976090D01*
X144790431Y-132763890D01*
X144841440Y-132512000D01*
X144841440Y-132185478D01*
X145681018Y-132185478D01*
X145712697Y-132217212D01*
X146056225Y-132359858D01*
X146428191Y-132360182D01*
X146771967Y-132218137D01*
X147035216Y-131955347D01*
X147177862Y-131611819D01*
X147177907Y-131560000D01*
X157737537Y-131560000D01*
X157769673Y-131592192D01*
X158113201Y-131734838D01*
X158485167Y-131735162D01*
X158828943Y-131593117D01*
X159092192Y-131330327D01*
X159234838Y-130986799D01*
X159235162Y-130614833D01*
X159093117Y-130271057D01*
X159060000Y-130237882D01*
X159060000Y-129237279D01*
X159251441Y-129114090D01*
X159396431Y-128901890D01*
X159447440Y-128650000D01*
X159447440Y-127350000D01*
X159403162Y-127114683D01*
X159264090Y-126898559D01*
X159051890Y-126753569D01*
X158800000Y-126702560D01*
X157300000Y-126702560D01*
X157064683Y-126746838D01*
X156848559Y-126885910D01*
X156703569Y-127098110D01*
X156700919Y-127111197D01*
X156564090Y-126898559D01*
X156351890Y-126753569D01*
X156264566Y-126735885D01*
X156264610Y-126685385D01*
X156122565Y-126341609D01*
X155859775Y-126078360D01*
X155516247Y-125935714D01*
X155144281Y-125935390D01*
X154800505Y-126077435D01*
X154537256Y-126340225D01*
X154394610Y-126683753D01*
X154394560Y-126741216D01*
X154364683Y-126746838D01*
X154243635Y-126824730D01*
X154215049Y-126796144D01*
X154212294Y-126792021D01*
X154144770Y-126724497D01*
X153898208Y-126559750D01*
X153607369Y-126501898D01*
X152618278Y-126501898D01*
X152618278Y-124552729D01*
X152742331Y-124552837D01*
X153086107Y-124410792D01*
X153349356Y-124148002D01*
X153492002Y-123804474D01*
X153492088Y-123705564D01*
X153552148Y-123615678D01*
X153610000Y-123324839D01*
X153610000Y-119136190D01*
X153787428Y-119209865D01*
X154159394Y-119210189D01*
X154503170Y-119068144D01*
X154766419Y-118805354D01*
X154909065Y-118461826D01*
X154909389Y-118089860D01*
X154767344Y-117746084D01*
X154734227Y-117712909D01*
X154734227Y-115424227D01*
X154676375Y-115133388D01*
X154511628Y-114886826D01*
X154247440Y-114622638D01*
X154247440Y-114010000D01*
X154537537Y-114010000D01*
X154569673Y-114042192D01*
X154913201Y-114184838D01*
X155285167Y-114185162D01*
X155356829Y-114155552D01*
X155371838Y-114235317D01*
X155510910Y-114451441D01*
X155723110Y-114596431D01*
X155975000Y-114647440D01*
X157225000Y-114647440D01*
X157460317Y-114603162D01*
X157676441Y-114464090D01*
X157821431Y-114251890D01*
X157872440Y-114000000D01*
X157872440Y-112500000D01*
X157828162Y-112264683D01*
X157689090Y-112048559D01*
X157620994Y-112002031D01*
X157763327Y-111859698D01*
X157860000Y-111626309D01*
X157860000Y-111035750D01*
X157701250Y-110877000D01*
X156727000Y-110877000D01*
X156727000Y-110897000D01*
X156473000Y-110897000D01*
X156473000Y-110877000D01*
X155498750Y-110877000D01*
X155340000Y-111035750D01*
X155340000Y-111626309D01*
X155436673Y-111859698D01*
X155577910Y-112000936D01*
X155523559Y-112035910D01*
X155378569Y-112248110D01*
X155358926Y-112345112D01*
X155286799Y-112315162D01*
X154914833Y-112314838D01*
X154571057Y-112456883D01*
X154537882Y-112490000D01*
X149493358Y-112490000D01*
X149493358Y-111313917D01*
X149525550Y-111281781D01*
X149668196Y-110938253D01*
X149668520Y-110566287D01*
X149526475Y-110222511D01*
X149263685Y-109959262D01*
X148920157Y-109816616D01*
X148548191Y-109816292D01*
X148204415Y-109958337D01*
X148185719Y-109977000D01*
X147327000Y-109977000D01*
X147327000Y-111923000D01*
X147347000Y-111923000D01*
X147347000Y-112177000D01*
X147327000Y-112177000D01*
X147327000Y-112197000D01*
X147073000Y-112197000D01*
X147073000Y-112177000D01*
X146098750Y-112177000D01*
X145940000Y-112335750D01*
X145940000Y-112593336D01*
X145761510Y-112712599D01*
X145568860Y-112905249D01*
X145404113Y-113151811D01*
X145346261Y-113442650D01*
X145346261Y-114698254D01*
X145296354Y-114748161D01*
X144063943Y-114748161D01*
X144118923Y-114615755D01*
X144302440Y-114539928D01*
X144565689Y-114277138D01*
X144708335Y-113933610D01*
X144708527Y-113713672D01*
X144892192Y-113530327D01*
X145034838Y-113186799D01*
X145035162Y-112814833D01*
X144893117Y-112471057D01*
X144630327Y-112207808D01*
X144286799Y-112065162D01*
X143914833Y-112064838D01*
X143571057Y-112206883D01*
X143537882Y-112240000D01*
X143279232Y-112240000D01*
X143168107Y-111971057D01*
X142905317Y-111707808D01*
X142561789Y-111565162D01*
X142189823Y-111564838D01*
X141846047Y-111706883D01*
X141727400Y-111825324D01*
X141694090Y-111773559D01*
X141481890Y-111628569D01*
X141460000Y-111624136D01*
X141460000Y-111397440D01*
X141550000Y-111397440D01*
X141785317Y-111353162D01*
X142001441Y-111214090D01*
X142044846Y-111150565D01*
X142248690Y-111235000D01*
X142714250Y-111235000D01*
X142873000Y-111076250D01*
X142873000Y-109977000D01*
X143127000Y-109977000D01*
X143127000Y-111076250D01*
X143285750Y-111235000D01*
X143751310Y-111235000D01*
X143984699Y-111138327D01*
X144050000Y-111073026D01*
X144115301Y-111138327D01*
X144348690Y-111235000D01*
X144814250Y-111235000D01*
X144973000Y-111076250D01*
X144973000Y-109977000D01*
X145227000Y-109977000D01*
X145227000Y-111076250D01*
X145385750Y-111235000D01*
X145851310Y-111235000D01*
X145940000Y-111198263D01*
X145940000Y-111764250D01*
X146098750Y-111923000D01*
X147073000Y-111923000D01*
X147073000Y-109977000D01*
X145227000Y-109977000D01*
X144973000Y-109977000D01*
X143127000Y-109977000D01*
X142873000Y-109977000D01*
X142853000Y-109977000D01*
X142853000Y-109723000D01*
X142873000Y-109723000D01*
X142873000Y-109703000D01*
X143127000Y-109703000D01*
X143127000Y-109723000D01*
X144973000Y-109723000D01*
X144973000Y-109703000D01*
X145227000Y-109703000D01*
X145227000Y-109723000D01*
X147073000Y-109723000D01*
X147073000Y-109703000D01*
X147327000Y-109703000D01*
X147327000Y-109723000D01*
X148301250Y-109723000D01*
X148460000Y-109564250D01*
X148460000Y-108973691D01*
X148363327Y-108740302D01*
X148222090Y-108599064D01*
X148276441Y-108564090D01*
X148421431Y-108351890D01*
X148470415Y-108110000D01*
X149799868Y-108110000D01*
X150090707Y-108052148D01*
X150337269Y-107887401D01*
X150864670Y-107360000D01*
X150940000Y-107360000D01*
X150940000Y-108490559D01*
X150904117Y-108526379D01*
X150761471Y-108869907D01*
X150761147Y-109241873D01*
X150903192Y-109585649D01*
X151165982Y-109848898D01*
X151509510Y-109991544D01*
X151881476Y-109991868D01*
X152167486Y-109873691D01*
X155340000Y-109873691D01*
X155340000Y-110464250D01*
X155498750Y-110623000D01*
X156473000Y-110623000D01*
X156473000Y-109523750D01*
X156727000Y-109523750D01*
X156727000Y-110623000D01*
X157701250Y-110623000D01*
X157860000Y-110464250D01*
X157860000Y-109873691D01*
X157763327Y-109640302D01*
X157584699Y-109461673D01*
X157351310Y-109365000D01*
X156885750Y-109365000D01*
X156727000Y-109523750D01*
X156473000Y-109523750D01*
X156314250Y-109365000D01*
X155848690Y-109365000D01*
X155615301Y-109461673D01*
X155436673Y-109640302D01*
X155340000Y-109873691D01*
X152167486Y-109873691D01*
X152225252Y-109849823D01*
X152488501Y-109587033D01*
X152631147Y-109243505D01*
X152631229Y-109148826D01*
X152709071Y-109226803D01*
X153052599Y-109369449D01*
X153424565Y-109369773D01*
X153768341Y-109227728D01*
X154031590Y-108964938D01*
X154174236Y-108621410D01*
X154174560Y-108249444D01*
X154032515Y-107905668D01*
X154009247Y-107882359D01*
X154009247Y-107687086D01*
X154041439Y-107654950D01*
X154184085Y-107311422D01*
X154184409Y-106939456D01*
X154042364Y-106595680D01*
X153985517Y-106538733D01*
X154023000Y-106501250D01*
X154023000Y-105527000D01*
X154277000Y-105527000D01*
X154277000Y-106501250D01*
X154435750Y-106660000D01*
X155026309Y-106660000D01*
X155259698Y-106563327D01*
X155438327Y-106384699D01*
X155535000Y-106151310D01*
X155535000Y-105685750D01*
X155376250Y-105527000D01*
X154277000Y-105527000D01*
X154023000Y-105527000D01*
X154003000Y-105527000D01*
X154003000Y-105273000D01*
X154023000Y-105273000D01*
X154023000Y-104298750D01*
X154277000Y-104298750D01*
X154277000Y-105273000D01*
X155376250Y-105273000D01*
X155535000Y-105114250D01*
X155535000Y-104648690D01*
X155438327Y-104415301D01*
X155259698Y-104236673D01*
X155026309Y-104140000D01*
X154435750Y-104140000D01*
X154277000Y-104298750D01*
X154023000Y-104298750D01*
X153864250Y-104140000D01*
X153273691Y-104140000D01*
X153040302Y-104236673D01*
X152899064Y-104377910D01*
X152864090Y-104323559D01*
X152785860Y-104270107D01*
X152785860Y-103598010D01*
X153001220Y-103598010D01*
X153236537Y-103553732D01*
X153399228Y-103449043D01*
X153439082Y-103488897D01*
X153672471Y-103585570D01*
X154488390Y-103585570D01*
X154647140Y-103426820D01*
X154647140Y-102327000D01*
X154901140Y-102327000D01*
X154901140Y-103426820D01*
X155059890Y-103585570D01*
X155875809Y-103585570D01*
X156109198Y-103488897D01*
X156287827Y-103310269D01*
X156384500Y-103076880D01*
X156384500Y-102485750D01*
X156225750Y-102327000D01*
X154901140Y-102327000D01*
X154647140Y-102327000D01*
X154627140Y-102327000D01*
X154627140Y-102073000D01*
X154647140Y-102073000D01*
X154647140Y-100973180D01*
X154901140Y-100973180D01*
X154901140Y-102073000D01*
X156225750Y-102073000D01*
X156384500Y-101914250D01*
X156384500Y-101323120D01*
X156287827Y-101089731D01*
X156109198Y-100911103D01*
X155875809Y-100814430D01*
X155059890Y-100814430D01*
X154901140Y-100973180D01*
X154647140Y-100973180D01*
X154488390Y-100814430D01*
X153672471Y-100814430D01*
X153439082Y-100911103D01*
X153398111Y-100952074D01*
X153253110Y-100852999D01*
X153001220Y-100801990D01*
X151050500Y-100801990D01*
X150815183Y-100846268D01*
X150599059Y-100985340D01*
X150562245Y-101039220D01*
X150559698Y-101036673D01*
X150326309Y-100940000D01*
X149735750Y-100940000D01*
X149577000Y-101098750D01*
X149577000Y-102073000D01*
X149597000Y-102073000D01*
X149597000Y-102327000D01*
X149577000Y-102327000D01*
X149577000Y-102347000D01*
X149323000Y-102347000D01*
X149323000Y-102327000D01*
X149303000Y-102327000D01*
X149303000Y-102073000D01*
X149323000Y-102073000D01*
X149323000Y-101098750D01*
X149164250Y-100940000D01*
X148573691Y-100940000D01*
X148340302Y-101036673D01*
X148199064Y-101177910D01*
X148164090Y-101123559D01*
X147951890Y-100978569D01*
X147700000Y-100927560D01*
X146200000Y-100927560D01*
X145964683Y-100971838D01*
X145748559Y-101110910D01*
X145603569Y-101323110D01*
X145552560Y-101575000D01*
X145552560Y-102825000D01*
X145596838Y-103060317D01*
X145735910Y-103276441D01*
X145948110Y-103421431D01*
X146200000Y-103472440D01*
X146226435Y-103472440D01*
X146247852Y-103580112D01*
X146412599Y-103826674D01*
X146525925Y-103940000D01*
X145973691Y-103940000D01*
X145740302Y-104036673D01*
X145561673Y-104215301D01*
X145465000Y-104448690D01*
X145465000Y-104914250D01*
X145579355Y-105028605D01*
X145486799Y-104990172D01*
X145114833Y-104989848D01*
X144771057Y-105131893D01*
X144507808Y-105394683D01*
X144365162Y-105738211D01*
X144364957Y-105973266D01*
X144239683Y-105996838D01*
X144047773Y-106120329D01*
X143930792Y-106040398D01*
X143931047Y-105747120D01*
X143789002Y-105403344D01*
X143526212Y-105140095D01*
X143182684Y-104997449D01*
X142810718Y-104997125D01*
X142466942Y-105139170D01*
X142203693Y-105401960D01*
X142061047Y-105745488D01*
X142060784Y-106047608D01*
X141998334Y-106087793D01*
X141801890Y-105953569D01*
X141550000Y-105902560D01*
X140250000Y-105902560D01*
X140014683Y-105946838D01*
X139848523Y-106053759D01*
X139701890Y-105953569D01*
X139450000Y-105902560D01*
X138150000Y-105902560D01*
X137914683Y-105946838D01*
X137748523Y-106053759D01*
X137601890Y-105953569D01*
X137350000Y-105902560D01*
X136050000Y-105902560D01*
X135814683Y-105946838D01*
X135678293Y-106034602D01*
X135569271Y-105486511D01*
X135244415Y-105000330D01*
X134929634Y-104790000D01*
X135244415Y-104579670D01*
X135569271Y-104093489D01*
X135683345Y-103520000D01*
X135569271Y-102946511D01*
X135244415Y-102460330D01*
X134929634Y-102250000D01*
X135244415Y-102039670D01*
X135569271Y-101553489D01*
X135683345Y-100980000D01*
X135569271Y-100406511D01*
X135244415Y-99920330D01*
X134929634Y-99710000D01*
X135244415Y-99499670D01*
X135569271Y-99013489D01*
X135683345Y-98440000D01*
X135569271Y-97866511D01*
X135244415Y-97380330D01*
X134929634Y-97170000D01*
X135244415Y-96959670D01*
X135569271Y-96473489D01*
X135683345Y-95900000D01*
X135569271Y-95326511D01*
X135244415Y-94840330D01*
X134929634Y-94630000D01*
X135244415Y-94419670D01*
X135569271Y-93933489D01*
X135683345Y-93360000D01*
X135569271Y-92786511D01*
X135244415Y-92300330D01*
X134929634Y-92090000D01*
X135244415Y-91879670D01*
X135569271Y-91393489D01*
X135683345Y-90820000D01*
X135569271Y-90246511D01*
X135244415Y-89760330D01*
X134929634Y-89550000D01*
X135244415Y-89339670D01*
X135569271Y-88853489D01*
X135683345Y-88280000D01*
X135671411Y-88220000D01*
X166316655Y-88220000D01*
X166430729Y-88793489D01*
X166755585Y-89279670D01*
X167070366Y-89490000D01*
X166755585Y-89700330D01*
X166430729Y-90186511D01*
X166316655Y-90760000D01*
X166430729Y-91333489D01*
X166755585Y-91819670D01*
X167070366Y-92030000D01*
X166755585Y-92240330D01*
X166430729Y-92726511D01*
X166316655Y-93300000D01*
X166430729Y-93873489D01*
X166755585Y-94359670D01*
X167070366Y-94570000D01*
X166755585Y-94780330D01*
X166430729Y-95266511D01*
X166316655Y-95840000D01*
X166430729Y-96413489D01*
X166755585Y-96899670D01*
X167070366Y-97110000D01*
X166755585Y-97320330D01*
X166430729Y-97806511D01*
X166316655Y-98380000D01*
X166430729Y-98953489D01*
X166755585Y-99439670D01*
X167070366Y-99650000D01*
X166755585Y-99860330D01*
X166430729Y-100346511D01*
X166316655Y-100920000D01*
X166430729Y-101493489D01*
X166755585Y-101979670D01*
X167070366Y-102190000D01*
X166755585Y-102400330D01*
X166430729Y-102886511D01*
X166316655Y-103460000D01*
X166430729Y-104033489D01*
X166755585Y-104519670D01*
X167070366Y-104730000D01*
X166755585Y-104940330D01*
X166430729Y-105426511D01*
X166316655Y-106000000D01*
X166430729Y-106573489D01*
X166755585Y-107059670D01*
X167070366Y-107270000D01*
X166755585Y-107480330D01*
X166430729Y-107966511D01*
X166316655Y-108540000D01*
X166430729Y-109113489D01*
X166755585Y-109599670D01*
X167070366Y-109810000D01*
X166755585Y-110020330D01*
X166430729Y-110506511D01*
X166316655Y-111080000D01*
X166430729Y-111653489D01*
X166755585Y-112139670D01*
X167070366Y-112350000D01*
X166755585Y-112560330D01*
X166430729Y-113046511D01*
X166316655Y-113620000D01*
X166430729Y-114193489D01*
X166755585Y-114679670D01*
X167070366Y-114890000D01*
X166755585Y-115100330D01*
X166430729Y-115586511D01*
X166316655Y-116160000D01*
X166430729Y-116733489D01*
X166755585Y-117219670D01*
X167070366Y-117430000D01*
X166755585Y-117640330D01*
X166430729Y-118126511D01*
X166316655Y-118700000D01*
X166430729Y-119273489D01*
X166755585Y-119759670D01*
X167070366Y-119970000D01*
X166755585Y-120180330D01*
X166430729Y-120666511D01*
X166316655Y-121240000D01*
X166430729Y-121813489D01*
X166755585Y-122299670D01*
X167070366Y-122510000D01*
X166755585Y-122720330D01*
X166430729Y-123206511D01*
X166316655Y-123780000D01*
X166430729Y-124353489D01*
X166755585Y-124839670D01*
X167070366Y-125050000D01*
X166755585Y-125260330D01*
X166430729Y-125746511D01*
X166316655Y-126320000D01*
X166430729Y-126893489D01*
X166755585Y-127379670D01*
X167070366Y-127590000D01*
X166755585Y-127800330D01*
X166430729Y-128286511D01*
X166316655Y-128860000D01*
X166430729Y-129433489D01*
X166755585Y-129919670D01*
X167065069Y-130126461D01*
X166649268Y-130497964D01*
X166395291Y-131025209D01*
X166392642Y-131040974D01*
X166513783Y-131273000D01*
X167873000Y-131273000D01*
X167873000Y-131253000D01*
X168127000Y-131253000D01*
X168127000Y-131273000D01*
X169486217Y-131273000D01*
X169607358Y-131040974D01*
X169604709Y-131025209D01*
X169350732Y-130497964D01*
X168934931Y-130126461D01*
X169244415Y-129919670D01*
X169569271Y-129433489D01*
X169683345Y-128860000D01*
X169569271Y-128286511D01*
X169244415Y-127800330D01*
X168929634Y-127590000D01*
X169244415Y-127379670D01*
X169569271Y-126893489D01*
X169683345Y-126320000D01*
X169569271Y-125746511D01*
X169244415Y-125260330D01*
X168929634Y-125050000D01*
X169244415Y-124839670D01*
X169569271Y-124353489D01*
X169683345Y-123780000D01*
X169569271Y-123206511D01*
X169244415Y-122720330D01*
X168929634Y-122510000D01*
X169244415Y-122299670D01*
X169569271Y-121813489D01*
X169683345Y-121240000D01*
X169569271Y-120666511D01*
X169244415Y-120180330D01*
X168929634Y-119970000D01*
X169244415Y-119759670D01*
X169569271Y-119273489D01*
X169683345Y-118700000D01*
X169569271Y-118126511D01*
X169244415Y-117640330D01*
X168929634Y-117430000D01*
X169244415Y-117219670D01*
X169569271Y-116733489D01*
X169683345Y-116160000D01*
X169569271Y-115586511D01*
X169244415Y-115100330D01*
X168929634Y-114890000D01*
X169244415Y-114679670D01*
X169569271Y-114193489D01*
X169683345Y-113620000D01*
X169569271Y-113046511D01*
X169244415Y-112560330D01*
X168929634Y-112350000D01*
X169244415Y-112139670D01*
X169569271Y-111653489D01*
X169683345Y-111080000D01*
X169569271Y-110506511D01*
X169244415Y-110020330D01*
X168929634Y-109810000D01*
X169244415Y-109599670D01*
X169569271Y-109113489D01*
X169683345Y-108540000D01*
X169569271Y-107966511D01*
X169244415Y-107480330D01*
X168929634Y-107270000D01*
X169244415Y-107059670D01*
X169569271Y-106573489D01*
X169683345Y-106000000D01*
X169569271Y-105426511D01*
X169244415Y-104940330D01*
X168929634Y-104730000D01*
X169244415Y-104519670D01*
X169569271Y-104033489D01*
X169683345Y-103460000D01*
X169569271Y-102886511D01*
X169244415Y-102400330D01*
X168929634Y-102190000D01*
X169244415Y-101979670D01*
X169569271Y-101493489D01*
X169683345Y-100920000D01*
X169569271Y-100346511D01*
X169244415Y-99860330D01*
X168929634Y-99650000D01*
X169244415Y-99439670D01*
X169569271Y-98953489D01*
X169683345Y-98380000D01*
X169569271Y-97806511D01*
X169244415Y-97320330D01*
X168929634Y-97110000D01*
X169244415Y-96899670D01*
X169569271Y-96413489D01*
X169683345Y-95840000D01*
X169569271Y-95266511D01*
X169244415Y-94780330D01*
X168929634Y-94570000D01*
X169244415Y-94359670D01*
X169569271Y-93873489D01*
X169683345Y-93300000D01*
X169569271Y-92726511D01*
X169244415Y-92240330D01*
X168929634Y-92030000D01*
X169244415Y-91819670D01*
X169569271Y-91333489D01*
X169683345Y-90760000D01*
X169569271Y-90186511D01*
X169244415Y-89700330D01*
X168929634Y-89490000D01*
X169244415Y-89279670D01*
X169569271Y-88793489D01*
X169683345Y-88220000D01*
X169569271Y-87646511D01*
X169244415Y-87160330D01*
X169230087Y-87150757D01*
X169251317Y-87146762D01*
X169467441Y-87007690D01*
X169612431Y-86795490D01*
X169663440Y-86543600D01*
X169663440Y-84816400D01*
X169619162Y-84581083D01*
X169480090Y-84364959D01*
X169267890Y-84219969D01*
X169016000Y-84168960D01*
X166984000Y-84168960D01*
X166748683Y-84213238D01*
X166532559Y-84352310D01*
X166387569Y-84564510D01*
X166336560Y-84816400D01*
X166336560Y-86543600D01*
X166380838Y-86778917D01*
X166519910Y-86995041D01*
X166732110Y-87140031D01*
X166773439Y-87148400D01*
X166755585Y-87160330D01*
X166430729Y-87646511D01*
X166316655Y-88220000D01*
X135671411Y-88220000D01*
X135569271Y-87706511D01*
X135244415Y-87220330D01*
X134929634Y-87010000D01*
X135244415Y-86799670D01*
X135569271Y-86313489D01*
X135683345Y-85740000D01*
X135569271Y-85166511D01*
X135244415Y-84680330D01*
X134758234Y-84355474D01*
X134184745Y-84241400D01*
X133815255Y-84241400D01*
X133241766Y-84355474D01*
X132755585Y-84680330D01*
X132430729Y-85166511D01*
X132316655Y-85740000D01*
X132127000Y-85740000D01*
X132127000Y-83052606D01*
X134052606Y-81127000D01*
X167947394Y-81127000D01*
X169873000Y-83052606D01*
G36*
X152627000Y-128273000D02*
X152647000Y-128273000D01*
X152647000Y-128527000D01*
X152627000Y-128527000D01*
X152627000Y-129501250D01*
X152785750Y-129660000D01*
X153376309Y-129660000D01*
X153609698Y-129563327D01*
X153788327Y-129384699D01*
X153885000Y-129151310D01*
X153885000Y-128685750D01*
X153726252Y-128527002D01*
X153796303Y-128527002D01*
X153806702Y-128537401D01*
X153952560Y-128634860D01*
X153952560Y-128650000D01*
X153996838Y-128885317D01*
X154135910Y-129101441D01*
X154348110Y-129246431D01*
X154600000Y-129297440D01*
X156100000Y-129297440D01*
X156335317Y-129253162D01*
X156551441Y-129114090D01*
X156696431Y-128901890D01*
X156699081Y-128888803D01*
X156835910Y-129101441D01*
X157048110Y-129246431D01*
X157300000Y-129297440D01*
X157540000Y-129297440D01*
X157540000Y-130040000D01*
X145802018Y-130040000D01*
X145360000Y-129597982D01*
X145360000Y-129295558D01*
X145585317Y-129253162D01*
X145801441Y-129114090D01*
X145946431Y-128901890D01*
X145949081Y-128888803D01*
X146085910Y-129101441D01*
X146298110Y-129246431D01*
X146550000Y-129297440D01*
X148050000Y-129297440D01*
X148285317Y-129253162D01*
X148469122Y-129134887D01*
X148623262Y-129135021D01*
X148646838Y-129260317D01*
X148785910Y-129476441D01*
X148998110Y-129621431D01*
X149250000Y-129672440D01*
X150750000Y-129672440D01*
X150985317Y-129628162D01*
X151201441Y-129489090D01*
X151247969Y-129420994D01*
X151390302Y-129563327D01*
X151623691Y-129660000D01*
X152214250Y-129660000D01*
X152373000Y-129501250D01*
X152373000Y-128527000D01*
X152353000Y-128527000D01*
X152353000Y-128273000D01*
X152373000Y-128273000D01*
X152373000Y-128253000D01*
X152627000Y-128253000D01*
X152627000Y-128273000D01*
X152627000Y-128273000D01*
G37*
X152627000Y-128273000D02*
X152647000Y-128273000D01*
X152647000Y-128527000D01*
X152627000Y-128527000D01*
X152627000Y-129501250D01*
X152785750Y-129660000D01*
X153376309Y-129660000D01*
X153609698Y-129563327D01*
X153788327Y-129384699D01*
X153885000Y-129151310D01*
X153885000Y-128685750D01*
X153726252Y-128527002D01*
X153796303Y-128527002D01*
X153806702Y-128537401D01*
X153952560Y-128634860D01*
X153952560Y-128650000D01*
X153996838Y-128885317D01*
X154135910Y-129101441D01*
X154348110Y-129246431D01*
X154600000Y-129297440D01*
X156100000Y-129297440D01*
X156335317Y-129253162D01*
X156551441Y-129114090D01*
X156696431Y-128901890D01*
X156699081Y-128888803D01*
X156835910Y-129101441D01*
X157048110Y-129246431D01*
X157300000Y-129297440D01*
X157540000Y-129297440D01*
X157540000Y-130040000D01*
X145802018Y-130040000D01*
X145360000Y-129597982D01*
X145360000Y-129295558D01*
X145585317Y-129253162D01*
X145801441Y-129114090D01*
X145946431Y-128901890D01*
X145949081Y-128888803D01*
X146085910Y-129101441D01*
X146298110Y-129246431D01*
X146550000Y-129297440D01*
X148050000Y-129297440D01*
X148285317Y-129253162D01*
X148469122Y-129134887D01*
X148623262Y-129135021D01*
X148646838Y-129260317D01*
X148785910Y-129476441D01*
X148998110Y-129621431D01*
X149250000Y-129672440D01*
X150750000Y-129672440D01*
X150985317Y-129628162D01*
X151201441Y-129489090D01*
X151247969Y-129420994D01*
X151390302Y-129563327D01*
X151623691Y-129660000D01*
X152214250Y-129660000D01*
X152373000Y-129501250D01*
X152373000Y-128527000D01*
X152353000Y-128527000D01*
X152353000Y-128273000D01*
X152373000Y-128273000D01*
X152373000Y-128253000D01*
X152627000Y-128253000D01*
X152627000Y-128273000D01*
G36*
X142477378Y-123519924D02*
X143087449Y-124129995D01*
X143334011Y-124294742D01*
X143624850Y-124352594D01*
X146308300Y-124352594D01*
X146341063Y-124385414D01*
X146684591Y-124528060D01*
X146882286Y-124528232D01*
X146762599Y-124647919D01*
X146597852Y-124894481D01*
X146540000Y-125185320D01*
X146540000Y-126704442D01*
X146314683Y-126746838D01*
X146098559Y-126885910D01*
X145953569Y-127098110D01*
X145950919Y-127111197D01*
X145814090Y-126898559D01*
X145601890Y-126753569D01*
X145350000Y-126702560D01*
X143850000Y-126702560D01*
X143614683Y-126746838D01*
X143398559Y-126885910D01*
X143253569Y-127098110D01*
X143224836Y-127240000D01*
X142360000Y-127240000D01*
X142360000Y-123344255D01*
X142477378Y-123519924D01*
X142477378Y-123519924D01*
G37*
X142477378Y-123519924D02*
X143087449Y-124129995D01*
X143334011Y-124294742D01*
X143624850Y-124352594D01*
X146308300Y-124352594D01*
X146341063Y-124385414D01*
X146684591Y-124528060D01*
X146882286Y-124528232D01*
X146762599Y-124647919D01*
X146597852Y-124894481D01*
X146540000Y-125185320D01*
X146540000Y-126704442D01*
X146314683Y-126746838D01*
X146098559Y-126885910D01*
X145953569Y-127098110D01*
X145950919Y-127111197D01*
X145814090Y-126898559D01*
X145601890Y-126753569D01*
X145350000Y-126702560D01*
X143850000Y-126702560D01*
X143614683Y-126746838D01*
X143398559Y-126885910D01*
X143253569Y-127098110D01*
X143224836Y-127240000D01*
X142360000Y-127240000D01*
X142360000Y-123344255D01*
X142477378Y-123519924D01*
G36*
X143865000Y-116414250D02*
X144023750Y-116573000D01*
X145123000Y-116573000D01*
X145123000Y-116553000D01*
X145377000Y-116553000D01*
X145377000Y-116573000D01*
X145397000Y-116573000D01*
X145397000Y-116827000D01*
X145377000Y-116827000D01*
X145377000Y-117826250D01*
X145535750Y-117985000D01*
X146126309Y-117985000D01*
X146359698Y-117888327D01*
X146538327Y-117709699D01*
X146594654Y-117573713D01*
X146596838Y-117585317D01*
X146735910Y-117801441D01*
X146948110Y-117946431D01*
X147200000Y-117997440D01*
X147218083Y-117997440D01*
X147247852Y-118147100D01*
X147412599Y-118393662D01*
X147856338Y-118837401D01*
X148102900Y-119002148D01*
X148393739Y-119060000D01*
X148437537Y-119060000D01*
X148469673Y-119092192D01*
X148813201Y-119234838D01*
X149023584Y-119235021D01*
X149023584Y-122386934D01*
X147806381Y-123604137D01*
X147806552Y-123408055D01*
X147664507Y-123064279D01*
X147401717Y-122801030D01*
X147058189Y-122658384D01*
X146686223Y-122658060D01*
X146342447Y-122800105D01*
X146309901Y-122832594D01*
X143939652Y-122832594D01*
X143774779Y-122667721D01*
X143774779Y-118470282D01*
X143806971Y-118438146D01*
X143949617Y-118094618D01*
X143949941Y-117722652D01*
X143807896Y-117378876D01*
X143545106Y-117115627D01*
X143232330Y-116985750D01*
X143865000Y-116985750D01*
X143865000Y-117476310D01*
X143961673Y-117709699D01*
X144140302Y-117888327D01*
X144373691Y-117985000D01*
X144964250Y-117985000D01*
X145123000Y-117826250D01*
X145123000Y-116827000D01*
X144023750Y-116827000D01*
X143865000Y-116985750D01*
X143232330Y-116985750D01*
X143201578Y-116972981D01*
X142829612Y-116972657D01*
X142485836Y-117114702D01*
X142360000Y-117240319D01*
X142360000Y-117075000D01*
X142302148Y-116784161D01*
X142197440Y-116627454D01*
X142197440Y-116268161D01*
X143865000Y-116268161D01*
X143865000Y-116414250D01*
X143865000Y-116414250D01*
G37*
X143865000Y-116414250D02*
X144023750Y-116573000D01*
X145123000Y-116573000D01*
X145123000Y-116553000D01*
X145377000Y-116553000D01*
X145377000Y-116573000D01*
X145397000Y-116573000D01*
X145397000Y-116827000D01*
X145377000Y-116827000D01*
X145377000Y-117826250D01*
X145535750Y-117985000D01*
X146126309Y-117985000D01*
X146359698Y-117888327D01*
X146538327Y-117709699D01*
X146594654Y-117573713D01*
X146596838Y-117585317D01*
X146735910Y-117801441D01*
X146948110Y-117946431D01*
X147200000Y-117997440D01*
X147218083Y-117997440D01*
X147247852Y-118147100D01*
X147412599Y-118393662D01*
X147856338Y-118837401D01*
X148102900Y-119002148D01*
X148393739Y-119060000D01*
X148437537Y-119060000D01*
X148469673Y-119092192D01*
X148813201Y-119234838D01*
X149023584Y-119235021D01*
X149023584Y-122386934D01*
X147806381Y-123604137D01*
X147806552Y-123408055D01*
X147664507Y-123064279D01*
X147401717Y-122801030D01*
X147058189Y-122658384D01*
X146686223Y-122658060D01*
X146342447Y-122800105D01*
X146309901Y-122832594D01*
X143939652Y-122832594D01*
X143774779Y-122667721D01*
X143774779Y-118470282D01*
X143806971Y-118438146D01*
X143949617Y-118094618D01*
X143949941Y-117722652D01*
X143807896Y-117378876D01*
X143545106Y-117115627D01*
X143232330Y-116985750D01*
X143865000Y-116985750D01*
X143865000Y-117476310D01*
X143961673Y-117709699D01*
X144140302Y-117888327D01*
X144373691Y-117985000D01*
X144964250Y-117985000D01*
X145123000Y-117826250D01*
X145123000Y-116827000D01*
X144023750Y-116827000D01*
X143865000Y-116985750D01*
X143232330Y-116985750D01*
X143201578Y-116972981D01*
X142829612Y-116972657D01*
X142485836Y-117114702D01*
X142360000Y-117240319D01*
X142360000Y-117075000D01*
X142302148Y-116784161D01*
X142197440Y-116627454D01*
X142197440Y-116268161D01*
X143865000Y-116268161D01*
X143865000Y-116414250D01*
G36*
X150477000Y-116573000D02*
X150497000Y-116573000D01*
X150497000Y-116827000D01*
X150477000Y-116827000D01*
X150477000Y-116847000D01*
X150223000Y-116847000D01*
X150223000Y-116827000D01*
X150203000Y-116827000D01*
X150203000Y-116573000D01*
X150223000Y-116573000D01*
X150223000Y-116553000D01*
X150477000Y-116553000D01*
X150477000Y-116573000D01*
X150477000Y-116573000D01*
G37*
X150477000Y-116573000D02*
X150497000Y-116573000D01*
X150497000Y-116827000D01*
X150477000Y-116827000D01*
X150477000Y-116847000D01*
X150223000Y-116847000D01*
X150223000Y-116827000D01*
X150203000Y-116827000D01*
X150203000Y-116573000D01*
X150223000Y-116573000D01*
X150223000Y-116553000D01*
X150477000Y-116553000D01*
X150477000Y-116573000D01*
G36*
X137834231Y-111302784D02*
X137792259Y-111344683D01*
X137656204Y-111672338D01*
X137518559Y-111760910D01*
X137460000Y-111846614D01*
X137460000Y-111376742D01*
X137585317Y-111353162D01*
X137751477Y-111246241D01*
X137834231Y-111302784D01*
X137834231Y-111302784D01*
G37*
X137834231Y-111302784D02*
X137792259Y-111344683D01*
X137656204Y-111672338D01*
X137518559Y-111760910D01*
X137460000Y-111846614D01*
X137460000Y-111376742D01*
X137585317Y-111353162D01*
X137751477Y-111246241D01*
X137834231Y-111302784D01*
G36*
X146977000Y-105073000D02*
X146997000Y-105073000D01*
X146997000Y-105327000D01*
X146977000Y-105327000D01*
X146977000Y-105347000D01*
X146723000Y-105347000D01*
X146723000Y-105327000D01*
X146703000Y-105327000D01*
X146703000Y-105073000D01*
X146723000Y-105073000D01*
X146723000Y-105053000D01*
X146977000Y-105053000D01*
X146977000Y-105073000D01*
X146977000Y-105073000D01*
G37*
X146977000Y-105073000D02*
X146997000Y-105073000D01*
X146997000Y-105327000D01*
X146977000Y-105327000D01*
X146977000Y-105347000D01*
X146723000Y-105347000D01*
X146723000Y-105327000D01*
X146703000Y-105327000D01*
X146703000Y-105073000D01*
X146723000Y-105073000D01*
X146723000Y-105053000D01*
X146977000Y-105053000D01*
X146977000Y-105073000D01*
M02*
