G04 #@! TF.FileFunction,Paste,Top*
%FSLAX46Y46*%
G04 Gerber Fmt 4.6, Leading zero omitted, Abs format (unit mm)*
G04 Created by KiCad (PCBNEW 4.0.2+dfsg1-stable) date Fri Nov  3 12:39:00 2017*
%MOMM*%
G01*
G04 APERTURE LIST*
%ADD10C,0.100000*%
%ADD11R,1.500000X1.250000*%
%ADD12R,1.198880X1.198880*%
%ADD13R,1.300000X1.500000*%
%ADD14R,1.500000X1.300000*%
%ADD15R,0.250000X1.000000*%
%ADD16R,1.000000X0.250000*%
%ADD17R,5.499100X1.998980*%
%ADD18R,0.400000X1.350000*%
%ADD19R,1.950720X1.501140*%
G04 APERTURE END LIST*
D10*
D11*
X145450000Y-125600000D03*
X147950000Y-125600000D03*
X156550000Y-125600000D03*
X154050000Y-125600000D03*
D12*
X161149020Y-137000000D03*
X159050980Y-137000000D03*
D13*
X141100000Y-115100000D03*
X141100000Y-112400000D03*
D14*
X158300000Y-132100000D03*
X155600000Y-132100000D03*
D13*
X152400000Y-129350000D03*
X152400000Y-132050000D03*
X150400000Y-129350000D03*
X150400000Y-132050000D03*
D15*
X147250000Y-116700000D03*
X147750000Y-116700000D03*
X148250000Y-116700000D03*
X148750000Y-116700000D03*
X149250000Y-116700000D03*
X149750000Y-116700000D03*
X150250000Y-116700000D03*
X150750000Y-116700000D03*
X151250000Y-116700000D03*
X151750000Y-116700000D03*
X152250000Y-116700000D03*
X152750000Y-116700000D03*
X153250000Y-116700000D03*
X153750000Y-116700000D03*
X154250000Y-116700000D03*
X154750000Y-116700000D03*
D16*
X156700000Y-114750000D03*
X156700000Y-114250000D03*
X156700000Y-113750000D03*
X156700000Y-113250000D03*
X156700000Y-112750000D03*
X156700000Y-112250000D03*
X156700000Y-111750000D03*
X156700000Y-111250000D03*
X156700000Y-110750000D03*
X156700000Y-110250000D03*
X156700000Y-109750000D03*
X156700000Y-109250000D03*
X156700000Y-108750000D03*
X156700000Y-108250000D03*
X156700000Y-107750000D03*
X156700000Y-107250000D03*
D15*
X154750000Y-105300000D03*
X154250000Y-105300000D03*
X153750000Y-105300000D03*
X153250000Y-105300000D03*
X152750000Y-105300000D03*
X152250000Y-105300000D03*
X151750000Y-105300000D03*
X151250000Y-105300000D03*
X150750000Y-105300000D03*
X150250000Y-105300000D03*
X149750000Y-105300000D03*
X149250000Y-105300000D03*
X148750000Y-105300000D03*
X148250000Y-105300000D03*
X147750000Y-105300000D03*
X147250000Y-105300000D03*
D16*
X145300000Y-107250000D03*
X145300000Y-107750000D03*
X145300000Y-108250000D03*
X145300000Y-108750000D03*
X145300000Y-109250000D03*
X145300000Y-109750000D03*
X145300000Y-110250000D03*
X145300000Y-110750000D03*
X145300000Y-111250000D03*
X145300000Y-111750000D03*
X145300000Y-112250000D03*
X145300000Y-112750000D03*
X145300000Y-113250000D03*
X145300000Y-113750000D03*
X145300000Y-114250000D03*
X145300000Y-114750000D03*
D17*
X146301000Y-121800000D03*
X155699000Y-121800000D03*
D18*
X149699100Y-134937460D03*
X150349100Y-134937460D03*
X150999100Y-134937460D03*
X151649100Y-134937460D03*
X152299100Y-134937460D03*
D19*
X147174140Y-129000000D03*
X144425860Y-129000000D03*
X143548280Y-131400000D03*
X140800000Y-131400000D03*
X143774140Y-134500000D03*
X141025860Y-134500000D03*
X158274140Y-129000000D03*
X155525860Y-129000000D03*
M02*
